<svg xmlns="http://www.w3.org/2000/svg" width="1098.67" height="618" viewBox="0 0 1098.67 618"><title>Cyberpunk2077 (4)</title><g id="Layer_2" data-name="Layer 2"><g id="Layer_1-2" data-name="Layer 1"><g id="Cyberpunk2077"><rect id="Border" width="1098.67" height="618" style="fill:none"/><g id="n2077"><g id="particleGroup1"><polygon points="620.86 380.26 621.09 379.96 621.43 379.96 621.43 380.26 621.43 380.47 621.15 380.3 620.86 380.26" style="fill:#52bedc"/><polygon points="622.58 379.96 622.86 379.96 623.13 380.21 622.86 380.47 622.58 380.47 622.58 379.96" style="fill:#52bedc"/><polygon points="626.01 379.96 626.01 380.53 626.55 380.53 626.55 380.24 626.28 379.96 626.01 379.96" style="fill:#52bedc"/><polygon points="626.01 377.38 626.01 376.52 625.73 376.31 625.73 375.95 626.01 375.95 626.01 376.24 626.3 376.67 626.3 377.38 626.01 377.38" style="fill:#52bedc"/><polygon points="635.74 375.95 636.02 375.95 636.02 376.49 635.74 376.56 635.74 375.95" style="fill:#52bedc"/><polygon points="626.27 380.76 626.65 381.39 626.87 381.39 626.87 380.81 626.27 380.76" style="fill:#52bedc"/><polygon points="627.44 379.96 628.01 379.96 628.01 380.53 627.73 380.53 627.44 380.24 627.44 379.96" style="fill:#52bedc"/><polygon points="635.17 380.24 635.47 379.96 635.74 379.96 635.45 380.47 635.36 380.76 635.17 380.83 635.17 380.24" style="fill:#52bedc"/><polygon points="635.45 378.52 635.45 378.24 635.74 377.94 636.02 378.15 636.02 378.52 635.45 378.52" style="fill:#52bedc"/><rect x="645.47" y="376.24" width="0.29" height="0.32" style="fill:#52bedc"/><polygon points="646.33 375.95 646.9 375.95 647.16 376.25 646.86 376.83 646.84 377.09 646.33 377.09 646.33 375.95" style="fill:#52bedc"/><polygon points="643.18 380.53 643.18 380.24 643.32 379.96 643.43 380.24 643.43 380.53 643.18 380.53" style="fill:#52bedc"/><polygon points="644.32 380.53 644.32 380.24 644.55 379.96 644.82 380.24 644.57 380.53 644.32 380.53" style="fill:#52bedc"/><rect x="644.89" y="380.81" width="0.29" height="0.26" style="fill:#52bedc"/><polygon points="646.09 381.07 646.33 381.39 646.61 381.58 646.61 381.07 646.09 381.07" style="fill:#52bedc"/><polygon points="648.04 380.24 648.33 380.24 648.61 380.53 648.61 380.81 648.33 381.07 648.04 380.83 648.04 380.24" style="fill:#52bedc"/><polygon points="649.47 380.24 649.76 380.24 649.94 379.96 650.31 380.24 650.62 380.24 651.08 379.96 651.76 379.96 652.05 380.24 652.05 380.53 651.76 380.81 651.48 380.81 651.44 380.53 650.62 380.53 649.96 381.33 649.79 380.81 649.47 380.81 649.47 380.24" style="fill:#52bedc"/><polygon points="653.21 380.24 653.34 379.96 653.46 380.24 653.46 380.53 653.21 380.53 653.21 380.24" style="fill:#52bedc"/><polygon points="656.34 375.95 657.2 375.95 657.48 376.22 657.22 376.52 656.91 376.52 656.91 376.81 656.68 377.09 656.34 377.09 656.34 376.52 656.55 376.4 656.34 376.15 656.34 375.95" style="fill:#52bedc"/><polygon points="652.12 376.52 652.32 376.24 652.6 376.56 652.36 376.77 652.12 376.52" style="fill:#52bedc"/><polygon points="655.48 376.52 655.48 376.24 655.8 376.24 656.02 376.77 655.48 376.77 655.48 376.52" style="fill:#52bedc"/><polygon points="658.09 377.09 658.36 377.65 658.61 377.65 658.61 377.09 658.09 377.09" style="fill:#52bedc"/><polygon points="658.91 377.38 659.2 377.38 659.49 377.09 659.77 377.09 659.77 377.38 659.77 377.67 658.91 377.67 658.91 377.38" style="fill:#52bedc"/><polygon points="657.48 378.24 657.48 378.52 658 378.52 657.84 378.24 657.48 378.24" style="fill:#52bedc"/><polygon points="658.63 377.95 659.2 377.95 659.77 378.24 660.02 378.52 658.91 378.52 658.61 378.24 658.63 377.95" style="fill:#52bedc"/><polygon points="662.64 380.19 662.99 379.93 663.21 380.24 663.21 380.53 662.92 380.53 662.37 380.78 662.64 380.19" style="fill:#52bedc"/><polygon points="656.34 380.24 656.91 380.24 656.91 380.78 656.63 380.53 656.34 380.53 656.34 380.24" style="fill:#52bedc"/><polygon points="657.77 380.24 658.34 380.24 658.63 380.78 658.63 381.1 658.35 381.07 658.2 380.53 657.77 380.53 657.77 380.24" style="fill:#52bedc"/><polygon points="665.05 379.96 664.92 380.24 664.92 380.53 665.23 380.53 665.05 379.96" style="fill:#52bedc"/></g><g id="particleGroup2"><polygon points="668.64 376.52 668.64 376.24 668.94 376.38 669.21 376.52 669.21 376.81 668.93 377.08 668.64 376.93 668.64 376.52" style="fill:#52bedc"/><polygon points="672.08 380.4 672.36 380.24 672.66 380.07 673.49 379.96 673.79 379.96 674.07 380.24 673.77 380.53 672.65 380.53 672.34 380.82 672.08 380.63 672.08 380.4" style="fill:#52bedc"/><polygon points="678.04 380.37 678.35 379.96 678.94 379.96 679.66 380.24 680.66 380.24 680.94 379.96 681.23 379.96 681.52 380.23 681.52 380.53 678.08 380.53 678.04 380.37" style="fill:#52bedc"/><polygon points="659.78 381.1 660.04 380.53 660.34 380.67 660.34 381.1 659.78 381.1" style="fill:#52bedc"/><polygon points="682.94 380.39 683.1 380.24 683.22 380.39 683.08 380.53 682.94 380.39" style="fill:#52bedc"/><polygon points="686.95 379.96 687.81 379.96 688.1 380.13 688.1 380.24 687.85 380.53 687.24 380.53 686.95 380.24 686.95 379.96" style="fill:#52bedc"/><polygon points="694.41 373.39 694.11 373.71 694.11 373.95 694.41 374.25 694.68 374 694.68 373.66 694.41 373.39" style="fill:#52bedc"/><polygon points="691.03 376.56 690.67 376.82 690.67 376.98 691 377.38 691.24 377.38 691.18 376.8 691.03 376.56" style="fill:#52bedc"/><polygon points="692.96 376.24 693.25 376.24 693.29 375.95 694.68 375.95 694.96 376.24 694.68 376.51 694.55 376.78 694.68 377.08 694.68 377.38 694.39 377.33 694.34 377.11 694.02 376.81 693.27 376.77 693.16 376.51 692.96 376.5 692.96 376.24" style="fill:#52bedc"/><polygon points="694.83 377.79 694.68 377.95 694.68 378.2 694.83 378.52 694.96 378.27 694.96 377.95 694.83 377.79" style="fill:#52bedc"/><polygon points="695.93 376.8 695.83 377.08 695.93 377.38 696.1 377.13 695.93 376.8" style="fill:#52bedc"/><polygon points="696.67 376.92 696.97 376.52 697.25 376.52 697.25 376.8 697.29 377.09 697.54 377.09 697.82 376.88 698.08 376.81 698.97 376.81 699.51 377.03 699.27 377.38 698.97 377.38 698.7 377.09 698.26 377.22 698.12 377.38 696.68 377.38 696.68 377.09 696.97 377.09 696.67 376.92" style="fill:#52bedc"/><polygon points="699.83 377.84 699.97 377.7 700.1 377.79 699.96 378.2 699.83 377.84" style="fill:#52bedc"/><polygon points="700.73 377.77 701.01 377.37 701.09 377.13 701.25 377.38 701.54 377.7 701.54 377.95 701.28 378.2 700.99 377.95 700.73 377.77" style="fill:#52bedc"/><polygon points="701.38 378.52 701.24 378.81 701.38 379.06 701.54 378.82 701.38 378.52" style="fill:#52bedc"/><polygon points="696.11 379.58 696.34 379.39 696.77 379.07 697.34 379.39 698.09 379.38 698.64 379.38 700.38 379.12 700.68 379.39 700.97 379.38 700.97 379.67 700.97 379.67 699.6 379.83 699.56 379.51 699.26 379.44 699.02 379.51 698.95 379.71 698.91 379.96 697.83 379.96 697.54 379.96 696.68 379.96 696.36 379.67 696.11 379.58" style="fill:#52bedc"/></g><g id="particleGroup3"><polygon points="706.06 376.76 706.36 377.07 706.67 377.19 706.96 377.09 707.25 376.81 707.84 376.81 708.07 377.11 708.41 377.09 708.41 376.81 708.66 376.55 708.98 377.03 708.98 377.09 708.7 377.36 708.68 377.54 708.96 377.8 708.98 378.1 708.86 378.21 708.52 377.92 708.4 377.96 708.14 377.95 708.13 377.67 708.42 377.52 708.4 377.38 707.55 377.38 707.27 377.38 707.08 377.25 706.93 377.32 706.96 377.38 706.98 377.68 706.69 377.96 706.53 377.96 706.4 377.67 706.42 377.38 705.84 377.38 706.06 376.76" style="fill:#52bedc"/><polygon points="708.7 374.81 709.27 374.81 709.24 375.39 708.98 375.1 708.7 374.94 708.7 374.81" style="fill:#52bedc"/><polygon points="710.7 373.95 710.99 373.95 710.99 374.51 710.84 374.51 710.7 374.23 710.7 373.95" style="fill:#52bedc"/><polygon points="710.7 373.09 710.84 372.81 710.99 373.1 710.99 373.38 710.7 373.38 710.7 373.09" style="fill:#52bedc"/><polygon points="709.84 377.38 709.84 377.67 710.12 377.94 710.31 378.25 710.4 377.96 710.7 377.82 710.43 377.65 710.39 377.38 709.84 377.38" style="fill:#52bedc"/><polygon points="711.25 377.09 711.4 376.83 711.55 377.09 711.55 377.38 711.28 377.38 711.25 377.09" style="fill:#52bedc"/><polygon points="712.42 377.1 712.55 376.83 712.7 377.08 712.7 377.36 712.42 377.36 712.42 377.1" style="fill:#52bedc"/><polygon points="706.69 378.24 707.27 378.24 707.41 377.97 707.55 378.24 708.13 378.24 708.13 378.52 706.69 378.52 706.69 378.24" style="fill:#52bedc"/></g><g id="particleGroup4"><polygon points="752.47 372.8 753.33 372.8 754.85 372.8 757.06 372.84 756.77 373.11 755.92 373.28 753.04 373.38 752.32 373.38 752.42 373.03 752.47 372.8" style="fill:#52bedc"/><polygon points="759.05 372.23 755.05 372.23 754.17 372.11 754.88 371.77 759.05 371.73 759.05 372.23" style="fill:#52bedc"/><polygon points="759.34 372.44 759.91 371.94 760.77 371.94 761.04 371.73 761.34 372.09 761.34 372.23 760.8 372.52 759.63 372.52 759.34 372.44" style="fill:#52bedc"/><polygon points="762.78 372.54 763.06 371.97 763.48 371.68 763.92 371.98 763.92 372.23 763.35 372.8 763.25 373.09 763.06 372.8 762.77 372.8 762.78 372.54" style="fill:#52bedc"/><polygon points="765.03 372.19 765.66 371.66 766.21 371.66 766.48 371.94 768.16 371.94 768.43 371.68 768.82 371.94 769.05 371.95 769.31 372.04 768.83 372.52 767.06 372.52 766.78 372.52 766.49 372.52 766.2 372.52 765.35 372.52 765.03 372.19" style="fill:#52bedc"/><polygon points="765.35 375.31 765.81 374.85 766.76 374.95 767.06 375.3 766.76 375.66 766.21 375.95 765.92 375.95 765.6 375.68 765.35 375.65 765.35 375.31" style="fill:#52bedc"/><polygon points="764.16 376.34 764.61 375.95 765.35 375.95 765.65 376.25 767.02 376.23 767.31 375.95 768.49 375.95 769.07 376.27 769.07 376.52 767.64 376.52 767.52 376.3 767.36 376.52 765.92 376.52 765.62 376.81 764.77 376.81 764.55 376.52 764.2 376.52 764.16 376.34" style="fill:#52bedc"/><polygon points="769.48 375.4 769.37 375.67 769.53 375.95 769.63 375.67 769.48 375.4" style="fill:#52bedc"/><polygon points="770.68 375.38 770.51 375.66 770.76 375.95 771.08 375.95 771.34 375.66 771.05 375.38 770.68 375.38" style="fill:#52bedc"/><polygon points="755.91 376.57 755.33 376.9 755.33 377.38 755.91 377.38 756.15 377.12 756.19 376.67 755.91 376.57" style="fill:#52bedc"/><rect x="751.04" y="377.09" width="0.29" height="0.29" style="fill:#52bedc"/><polygon points="746.18 377.28 746.72 376.63 747 376.62 747.57 377.09 748.75 377.09 749.15 376.63 749.5 377.09 749.9 377.09 749.9 377.38 749.61 377.38 748.03 377.35 747.8 377.38 747.32 377.38 747.04 377.38 746.18 377.43 746.18 377.28" style="fill:#52bedc"/><rect x="745.61" y="374.23" width="0.29" height="0.26" style="fill:#52bedc"/><polygon points="745.03 380.07 745.52 379.67 747.32 379.67 747.82 379.96 749.33 379.96 749.61 380.14 749.32 380.24 746.46 380.2 746.25 379.96 745.9 380.2 745.03 380.24 745.03 380.07" style="fill:#52bedc"/><polygon points="743.61 378.01 743.89 377.38 743.89 377.09 744.28 376.57 744.64 377.02 744.36 377.24 744.17 377.47 744.13 377.94 743.61 378.01" style="fill:#52bedc"/><polygon points="740.19 377.41 740.78 377.09 741.6 377.09 741.6 376.81 741.82 376.57 742.14 376.95 741.91 377.41 740.75 377.43 740.39 377.68 740.19 377.41" style="fill:#52bedc"/><polygon points="738.45 378.11 738.68 378.01 739.01 378.06 738.8 378.22 738.45 378.11" style="fill:#52bedc"/><polygon points="736.14 378.1 736.71 377.58 736.76 377.12 737.04 376.86 737.31 377.34 737.31 377.67 736.72 377.96 736.5 378.22 736.14 378.1" style="fill:#52bedc"/><polygon points="731.88 380.11 732.77 379.67 733.88 379.67 736.45 379.67 737.31 379.67 737.89 379.76 737.31 380.24 732.44 380.24 731.88 380.11" style="fill:#52bedc"/><polygon points="730.48 377.35 730.98 376.85 731.3 377.11 731.3 377.38 730.73 377.68 730.48 377.35" style="fill:#52bedc"/><polygon points="733.05 377.12 733.27 376.86 733.63 377.12 733.34 377.33 733.05 377.12" style="fill:#52bedc"/><polygon points="727.87 378.13 728.29 377.13 728.45 377.68 728.73 378.01 728.73 378.24 728.44 378.24 727.87 378.13" style="fill:#52bedc"/><polygon points="725.86 377.09 726.44 377.09 727.02 377.69 726.72 377.95 726.44 377.95 726.44 377.7 726.21 377.38 725.86 377.38 725.86 377.09" style="fill:#52bedc"/><polygon points="724.72 377.1 725.29 377.13 724.86 377.68 724.72 377.45 724.72 377.1" style="fill:#52bedc"/><polygon points="724.45 378.12 724.72 377.95 725.01 378.01 725.01 378.24 724.67 378.24 724.45 378.12" style="fill:#52bedc"/><polygon points="725.58 375.28 725.8 375.13 726.15 375.2 725.98 375.34 725.58 375.28" style="fill:#52bedc"/><polygon points="726.15 374.23 726.29 373.97 726.71 373.97 726.71 374.23 726.57 374.51 726.4 374.24 726.15 374.23" style="fill:#52bedc"/><polygon points="727.88 374.82 728.15 375.13 728.15 375.38 727.01 375.38 726.72 375.11 726.72 374.81 727.02 374.28 727.26 374.24 727.71 373.97 728.09 374.41 727.75 374.51 727.44 374.36 727.33 374.51 727.02 374.83 727.88 374.82" style="fill:#52bedc"/><polygon points="717.49 377.1 717.82 377.08 718.27 376.84 718.52 377.07 719.43 376.81 719.86 376.81 720.38 377.33 720.14 377.68 720.12 378.17 720.02 378.24 719.85 377.95 719.86 377.68 719.55 377.38 718.71 377.38 718.41 377.77 718.37 377.95 718.14 378.24 717.85 378.24 717.83 377.95 717.57 377.68 717.49 377.1" style="fill:#52bedc"/><polygon points="720.99 378.1 721.26 377.95 721.57 378.1 721.28 378.27 720.99 378.1" style="fill:#52bedc"/><polygon points="721.28 377.13 721.41 376.83 721.57 377.1 721.42 377.39 721.28 377.13" style="fill:#52bedc"/><polygon points="723.85 373.38 724 373.11 724.13 373.38 723.99 373.65 723.85 373.38" style="fill:#52bedc"/><polygon points="720.13 373.38 720.42 373.11 720.72 373.38 720.47 373.65 720.13 373.38" style="fill:#52bedc"/></g><g id="particleGroup5"><polygon points="787.86 366.26 788.09 365.96 788.43 365.96 788.43 366.26 788.43 366.47 788.15 366.3 787.86 366.26" style="fill:#52bedc"/><polygon points="789.58 365.96 789.86 365.96 790.13 366.21 789.86 366.47 789.58 366.47 789.58 365.96" style="fill:#52bedc"/><polygon points="793.01 365.96 793.01 366.53 793.55 366.53 793.55 366.24 793.28 365.96 793.01 365.96" style="fill:#52bedc"/><polygon points="793.01 363.38 793.01 362.52 792.73 362.31 792.73 361.95 793.01 361.95 793.01 362.24 793.3 362.67 793.3 363.38 793.01 363.38" style="fill:#52bedc"/><polygon points="802.74 361.95 803.02 361.95 803.02 362.49 802.74 362.56 802.74 361.95" style="fill:#52bedc"/><polygon points="793.27 366.76 793.65 367.39 793.87 367.39 793.87 366.81 793.27 366.76" style="fill:#52bedc"/><polygon points="794.44 365.96 795.01 365.96 795.01 366.53 794.73 366.53 794.44 366.24 794.44 365.96" style="fill:#52bedc"/><polygon points="802.17 366.24 802.47 365.96 802.74 365.96 802.45 366.47 802.36 366.76 802.17 366.83 802.17 366.24" style="fill:#52bedc"/><polygon points="802.45 364.52 802.45 364.24 802.74 363.94 803.02 364.15 803.02 364.52 802.45 364.52" style="fill:#52bedc"/><rect x="812.47" y="362.24" width="0.29" height="0.32" style="fill:#52bedc"/><polygon points="813.33 361.95 813.9 361.95 814.16 362.25 813.86 362.83 813.84 363.09 813.33 363.09 813.33 361.95" style="fill:#52bedc"/><polygon points="810.18 366.53 810.18 366.24 810.32 365.96 810.43 366.24 810.43 366.53 810.18 366.53" style="fill:#52bedc"/><polygon points="811.32 366.53 811.32 366.24 811.55 365.96 811.82 366.24 811.57 366.53 811.32 366.53" style="fill:#52bedc"/><rect x="811.89" y="366.81" width="0.29" height="0.26" style="fill:#52bedc"/><polygon points="813.09 367.07 813.33 367.39 813.61 367.58 813.61 367.07 813.09 367.07" style="fill:#52bedc"/><polygon points="815.04 366.24 815.33 366.24 815.61 366.53 815.61 366.81 815.33 367.07 815.04 366.83 815.04 366.24" style="fill:#52bedc"/><polygon points="816.47 366.24 816.76 366.24 816.94 365.96 817.31 366.24 817.62 366.24 818.08 365.96 818.76 365.96 819.05 366.24 819.05 366.53 818.76 366.81 818.48 366.81 818.44 366.53 817.62 366.53 816.96 367.33 816.79 366.81 816.47 366.81 816.47 366.24" style="fill:#52bedc"/><polygon points="820.21 366.24 820.34 365.96 820.46 366.24 820.46 366.53 820.21 366.53 820.21 366.24" style="fill:#52bedc"/><polygon points="823.34 361.95 824.2 361.95 824.48 362.22 824.22 362.52 823.91 362.52 823.91 362.81 823.68 363.09 823.34 363.09 823.34 362.52 823.55 362.4 823.34 362.15 823.34 361.95" style="fill:#52bedc"/><polygon points="819.12 362.52 819.32 362.24 819.6 362.56 819.36 362.77 819.12 362.52" style="fill:#52bedc"/><polygon points="822.48 362.52 822.48 362.24 822.8 362.24 823.02 362.77 822.48 362.77 822.48 362.52" style="fill:#52bedc"/><polygon points="825.09 363.09 825.36 363.65 825.61 363.65 825.61 363.09 825.09 363.09" style="fill:#52bedc"/><polygon points="825.91 363.38 826.2 363.38 826.49 363.09 826.77 363.09 826.77 363.38 826.77 363.67 825.91 363.67 825.91 363.38" style="fill:#52bedc"/><polygon points="824.48 364.24 824.48 364.52 825 364.52 824.84 364.24 824.48 364.24" style="fill:#52bedc"/><polygon points="825.63 363.95 826.2 363.95 826.77 364.24 827.02 364.52 825.91 364.52 825.61 364.24 825.63 363.95" style="fill:#52bedc"/><polygon points="829.64 366.19 829.99 365.93 830.21 366.24 830.21 366.53 829.92 366.53 829.37 366.78 829.64 366.19" style="fill:#52bedc"/><polygon points="823.34 366.24 823.91 366.24 823.91 366.78 823.63 366.53 823.34 366.53 823.34 366.24" style="fill:#52bedc"/><polygon points="824.77 366.24 825.34 366.24 825.63 366.78 825.63 367.1 825.35 367.07 825.2 366.53 824.77 366.53 824.77 366.24" style="fill:#52bedc"/><polygon points="832.05 365.96 831.92 366.24 831.92 366.53 832.23 366.53 832.05 365.96" style="fill:#52bedc"/></g><g id="particleGroup6"><polygon points="884.47 362.8 885.33 362.8 886.85 362.8 889.06 362.84 888.77 363.11 887.92 363.28 885.04 363.38 884.32 363.38 884.42 363.03 884.47 362.8" style="fill:#52bedc"/><polygon points="891.05 362.23 887.05 362.23 886.17 362.11 886.88 361.77 891.05 361.73 891.05 362.23" style="fill:#52bedc"/><polygon points="891.34 362.44 891.91 361.94 892.77 361.94 893.04 361.73 893.34 362.09 893.34 362.23 892.8 362.52 891.63 362.52 891.34 362.44" style="fill:#52bedc"/><polygon points="894.78 362.54 895.06 361.97 895.48 361.68 895.92 361.98 895.92 362.23 895.35 362.8 895.25 363.09 895.06 362.8 894.77 362.8 894.78 362.54" style="fill:#52bedc"/><polygon points="897.03 362.19 897.66 361.66 898.21 361.66 898.48 361.94 900.16 361.94 900.43 361.68 900.82 361.94 901.05 361.95 901.31 362.04 900.83 362.52 899.06 362.52 898.78 362.52 898.49 362.52 898.2 362.52 897.35 362.52 897.03 362.19" style="fill:#52bedc"/><polygon points="897.35 365.31 897.81 364.85 898.76 364.95 899.06 365.3 898.76 365.66 898.21 365.95 897.92 365.95 897.6 365.68 897.35 365.65 897.35 365.31" style="fill:#52bedc"/><polygon points="896.16 366.34 896.61 365.95 897.35 365.95 897.65 366.25 899.02 366.23 899.31 365.95 900.49 365.95 901.07 366.27 901.07 366.52 899.64 366.52 899.52 366.3 899.36 366.52 897.92 366.52 897.62 366.81 896.77 366.81 896.55 366.52 896.2 366.52 896.16 366.34" style="fill:#52bedc"/><polygon points="901.48 365.4 901.37 365.67 901.53 365.95 901.63 365.67 901.48 365.4" style="fill:#52bedc"/><polygon points="902.68 365.38 902.51 365.66 902.76 365.95 903.08 365.95 903.34 365.66 903.05 365.38 902.68 365.38" style="fill:#52bedc"/><polygon points="887.91 366.57 887.33 366.9 887.33 367.38 887.91 367.38 888.15 367.12 888.19 366.67 887.91 366.57" style="fill:#52bedc"/><rect x="883.04" y="367.09" width="0.29" height="0.29" style="fill:#52bedc"/><polygon points="878.18 367.28 878.72 366.63 879 366.62 879.57 367.09 880.75 367.09 881.15 366.63 881.5 367.09 881.9 367.09 881.9 367.38 881.61 367.38 880.03 367.35 879.8 367.38 879.32 367.38 879.04 367.38 878.18 367.43 878.18 367.28" style="fill:#52bedc"/><rect x="877.61" y="364.23" width="0.29" height="0.26" style="fill:#52bedc"/><polygon points="877.03 370.07 877.52 369.67 879.32 369.67 879.82 369.96 881.33 369.96 881.61 370.14 881.32 370.24 878.46 370.2 878.25 369.96 877.9 370.2 877.03 370.24 877.03 370.07" style="fill:#52bedc"/><polygon points="875.61 368.01 875.89 367.38 875.89 367.09 876.28 366.57 876.64 367.02 876.36 367.24 876.17 367.47 876.13 367.94 875.61 368.01" style="fill:#52bedc"/><polygon points="872.19 367.41 872.78 367.09 873.6 367.09 873.6 366.81 873.82 366.57 874.14 366.95 873.91 367.41 872.75 367.43 872.39 367.68 872.19 367.41" style="fill:#52bedc"/><polygon points="870.45 368.11 870.68 368.01 871.01 368.06 870.8 368.22 870.45 368.11" style="fill:#52bedc"/><polygon points="868.14 368.1 868.71 367.58 868.76 367.12 869.04 366.86 869.31 367.34 869.31 367.67 868.72 367.96 868.5 368.22 868.14 368.1" style="fill:#52bedc"/><polygon points="863.88 370.11 864.77 369.67 865.88 369.67 868.45 369.67 869.31 369.67 869.89 369.76 869.31 370.24 864.44 370.24 863.88 370.11" style="fill:#52bedc"/><polygon points="862.48 367.35 862.98 366.85 863.3 367.11 863.3 367.38 862.73 367.68 862.48 367.35" style="fill:#52bedc"/><polygon points="865.05 367.12 865.27 366.86 865.63 367.12 865.34 367.33 865.05 367.12" style="fill:#52bedc"/><polygon points="859.87 368.13 860.29 367.13 860.45 367.68 860.73 368.01 860.73 368.24 860.44 368.24 859.87 368.13" style="fill:#52bedc"/><polygon points="857.86 367.09 858.44 367.09 859.02 367.69 858.72 367.95 858.44 367.95 858.44 367.7 858.21 367.38 857.86 367.38 857.86 367.09" style="fill:#52bedc"/><polygon points="856.72 367.1 857.29 367.13 856.86 367.68 856.72 367.45 856.72 367.1" style="fill:#52bedc"/><polygon points="856.45 368.12 856.72 367.95 857.01 368.01 857.01 368.24 856.67 368.24 856.45 368.12" style="fill:#52bedc"/><polygon points="857.58 365.28 857.8 365.13 858.15 365.2 857.98 365.34 857.58 365.28" style="fill:#52bedc"/><polygon points="858.15 364.23 858.29 363.97 858.71 363.97 858.71 364.23 858.57 364.51 858.4 364.24 858.15 364.23" style="fill:#52bedc"/><polygon points="859.88 364.82 860.15 365.13 860.15 365.38 859.01 365.38 858.72 365.11 858.72 364.81 859.02 364.28 859.26 364.24 859.71 363.97 860.09 364.41 859.75 364.51 859.44 364.36 859.33 364.51 859.02 364.83 859.88 364.82" style="fill:#52bedc"/><polygon points="849.49 367.1 849.82 367.08 850.27 366.84 850.52 367.07 851.43 366.81 851.86 366.81 852.38 367.33 852.14 367.68 852.12 368.17 852.02 368.24 851.85 367.95 851.86 367.68 851.55 367.38 850.71 367.38 850.41 367.77 850.37 367.95 850.14 368.24 849.85 368.24 849.83 367.95 849.57 367.68 849.49 367.1" style="fill:#52bedc"/><polygon points="852.99 368.1 853.26 367.95 853.57 368.1 853.28 368.27 852.99 368.1" style="fill:#52bedc"/><polygon points="853.28 367.13 853.41 366.83 853.57 367.1 853.42 367.39 853.28 367.13" style="fill:#52bedc"/><polygon points="855.85 363.38 856 363.11 856.13 363.38 855.99 363.65 855.85 363.38" style="fill:#52bedc"/><polygon points="852.13 363.38 852.42 363.11 852.72 363.38 852.47 363.65 852.13 363.38" style="fill:#52bedc"/></g><path id="n2" d="M702.12,372.23h-8.89l-8.85,8.89-2.86,0v-.23l-.29,0-.29.27h-2.3l-.13-.28-.1.31-.9,0v-.3l-.28.3h-.33l-.25-.29v.29h-.82l.25-.29v-.27h.29V380h-.54l-.32.57v.6l-.29,0v-.23l-.23.26-.91,0v-.25l-.29.25h-5l.13-.29v-.57l-.29.29v.25l-.27.31-17.75,0v0l-.29,0v.55l-8.56,0-.06.27-.25,0v-.31l-.8,0,.77-.25.06-.27.83,0v-.29l-.29-.23.24-.34L645.7,376l0-.59.52,0,3.45-4.56a10.25,10.25,0,0,0,.9-3.49s.37-4.88-4-6.83a8.86,8.86,0,0,0-3.86-.88s-2.43-.21-5,2.61l-.25.27.25.27,0,.28-.81.33a5,5,0,0,0-.86,2.27v1.45l3.68,0s.42-3.74,4.13-3.48c0,0,2.82.13,3.07,3.74a3.48,3.48,0,0,1-.86,1.91l-6.37,8.06h.65l0,.29h-.84l-3.15,3.77v.23h.86l0,.29h-.25v.28h-.57L636,382v3.69h14.6V382l2.43,0,.13-.14h.87l.14.16.15-.18,14.29,0,.15-.15.17.15,1.4,0,.18-.17.15.11,10.56.06.28-.06,2.87.06.31-.13,2.23-2.25.29-.06,0-.21,2-2,.29,0,0-.25,4-4,.23-.06,0,.58.3,0,0-.6,7.94,0,.07.88.25.55v-3Z" style="fill:#52bedc"/><path id="n0" d="M709.7,359.64c-4,0-7.3,3-7.3,6.75V379a6.24,6.24,0,0,0,.9,3.22h.82l.26.29h-.9a5.73,5.73,0,0,0,.47.63l.4,0,.08.24.57-.28h.26l.16.27.24-.27.14,0,.18.09.53-.09-.09.22,0,.31-.1.54-.2-.24h-.57l-.25.22v.19a7.63,7.63,0,0,0,4.41,1.39c4,0,7.29-3,7.29-6.75V366.39C717,362.67,713.67,359.64,709.7,359.64ZM713,372.53v6.1a3.11,3.11,0,0,1-.67,1.92l.1.55h-.64a3.52,3.52,0,0,1-3.6.51l-.34.32-.81.45,0,.44h-.28l0-.79.52-.07v-.29h.23l.29-.26a3.21,3.21,0,0,1-1.67-2.78V366.81a3.44,3.44,0,0,1,6.87,0Z" style="fill:#52bedc"/><g id="endpoint_1"><path d="M716.42,371.94h1.43l.59.13,10,.05.4-.18.41.09,11.07.09.41-.18s5.44-.05,5.44,0a1,1,0,0,0,.15.26l.12-.28.5.06,0,.59-.06.23H725.58l-.32.56L725,374h-.25l-.29-.2.29-.36,0-.41-.32-.31-3.37,0-.3.15h-3.11l-.15-.07-.16.07h-.86Z" style="fill:#52bedc"/><path d="M749.73,375.59a3.15,3.15,0,1,1,3.16-3.15A3.15,3.15,0,0,1,749.73,375.59Zm0-5.44a2.3,2.3,0,1,0,2.3,2.29A2.3,2.3,0,0,0,749.73,370.15Z" style="fill:#52bedc"/></g><path id="n71" d="M775.14,359.64l-.08.41-.34.18-.24-.17-1.39-.14-.42-.28h-4.46v7.73l4,0,0-3.74h3.91l.46-.29h.21l.14.29h1.48l-4.33,11.09.1.3-.32.26-.16.43.22.07-.32.17-3.67,9.42h.78l.12-.25h.53l.22.26h2.9l8.61-21.74v-4Zm2.12,2.31-.13-.09.09-.14.16.14Z" style="fill:#52bedc"/><path id="n72" d="M834.3,359.64v5.17l.36.11-.36.25v2.2h2l.18-.34.17.34h1.66l0-3.74h6.19l-6.56,16.82.37.06-.58.47L836,385.39h2.24l.19-.27.15.27h2l4.08-10.3H844v-.28l.68-.27.14,0,4.33-10.94v-4Zm7.44,17.15h-.31l-.25-.11.25-.4.31.12Z" style="fill:#52bedc"/><polygon points="788.8 371.01 789.11 370.8 789.67 370.8 789.67 371.09 789.09 371.09 788.8 371.01" style="fill:#52bedc"/><polygon points="791.95 370.94 792.25 370.8 792.54 370.8 792.8 370.94 792.54 371.09 792.24 371.09 791.95 370.94" style="fill:#52bedc"/><polygon points="795.67 370.8 795.67 371.09 806.83 371.09 807.37 371.36 807.72 371.09 810.55 371.09 810.98 371.37 811.41 371.09 811.7 371.09 812.16 371.37 812.59 371.09 812.84 371.09 813.13 370.95 812.83 370.8 795.67 370.8" style="fill:#52bedc"/><polygon points="813.69 371.08 813.96 370.8 814.28 371.08 813.99 371.37 813.69 371.08" style="fill:#52bedc"/><polygon points="777.65 376.24 778.79 376.24 779.08 376.24 779.37 376.47 779.04 376.81 778.79 376.81 778.4 376.52 777.94 376.52 777.65 376.24" style="fill:#52bedc"/><polygon points="783.13 376.52 783.4 376.24 783.94 376.24 784.23 376.52 783.9 376.81 783.37 376.81 783.13 376.52" style="fill:#52bedc"/><polygon points="786.8 376.52 787.07 376.24 787.39 376.52 787.09 376.81 786.81 376.81 786.8 376.52" style="fill:#52bedc"/><polygon points="779.91 376.52 780.24 376.24 780.52 376.52 780.22 376.81 779.91 376.52" style="fill:#52bedc"/><polygon points="830.29 375.96 830.54 375.71 830.88 375.96 830.59 376.19 830.29 375.96" style="fill:#52bedc"/><g id="line26"><polygon points="790.81 376.24 792.24 376.24 792.19 376.81 791.67 376.81 790.81 376.7 790.81 376.24" style="fill:#52bedc"/><polygon points="793.38 376.67 793.66 376.52 793.96 376.52 793.96 376.81 793.67 376.81 793.38 376.67" style="fill:#52bedc"/><polygon points="794.21 376.52 794.54 376.24 794.82 376.24 795.14 376.52 794.67 376.81 794.21 376.52" style="fill:#52bedc"/><rect x="795.39" y="376.52" width="0.29" height="0.29" style="fill:#52bedc"/><polygon points="796.53 376.52 796.82 376.52 797.11 376.67 796.82 376.81 796.53 376.81 796.53 376.52" style="fill:#52bedc"/><polygon points="797.66 376.52 798 376.24 798.54 376.24 798.83 376.52 801.11 376.52 801.42 376.24 801.68 376.24 801.96 376.52 804.54 376.52 804.81 376.24 805.12 376.24 805.47 376.52 809.41 376.52 809.71 376.67 809.43 376.81 809.12 376.81 808.81 377.07 808.23 376.81 800.83 376.81 800.53 377.07 800.24 376.94 800.21 376.81 798.54 376.81 797.96 376.81 797.66 376.52" style="fill:#52bedc"/><polygon points="810.84 376.52 812.27 376.52 812.41 376.81 812.53 376.52 812.84 376.52 813.09 376.67 813.4 376.52 815.7 376.52 816.63 376.67 817.41 376.65 817.69 376.52 819.42 376.52 819.93 376.81 820.85 376.81 821.13 376.52 822.86 376.52 823.2 376.81 824.86 376.73 824.86 376.52 825.72 376.52 826.19 376.71 827.8 376.67 828.04 376.52 828.58 376.52 828.92 376.67 829.4 376.92 829.13 377.09 828.79 377.38 828.32 377.05 827.15 377.09 826.88 377.38 826.55 377.06 822.91 377.08 822.26 377.38 821.71 377.38 821.4 377.11 820.61 377.09 820.44 377.38 820.23 377.09 820.01 377.07 819.42 376.73 819.42 377.09 818.86 377.11 818.74 376.82 818.56 377.11 818.29 377.13 818.13 376.81 817.75 376.8 817.43 377.09 814.84 377.06 814.53 376.81 813.99 376.81 813.84 377.09 813.13 377.09 812.87 376.8 812.56 376.95 812.51 377.12 812 377.07 811.64 376.81 810.84 376.8 810.84 376.52" style="fill:#52bedc"/><polygon points="832.86 377.11 833.29 376.52 833.6 376.81 834.06 377.11 833.72 377.38 833.16 377.38 832.86 377.11" style="fill:#52bedc"/></g><polygon points="833.46 376 833.73 375.71 834.06 376 833.76 376.28 833.46 376" style="fill:#52bedc"/><path d="M834.3,376.84l.56-.32h.3l.83.16.31.28-.26.13h-.31l-.38.29-.54-.32-.51,0Z" style="fill:#52bedc"/><polygon points="836.3 375.95 836.77 375.71 837.18 375.95 836.8 376.19 836.3 375.95" style="fill:#52bedc"/><polygon points="836.62 377.11 837.47 376.85 837.75 376.52 838.88 376.52 839.09 376.79 839.46 376.95 839.31 377.27 839.01 377.38 836.59 377.38 836.62 377.11" style="fill:#52bedc"/><rect x="829.44" y="380.24" width="0.86" height="0.29" style="fill:#52bedc"/><polygon points="829.19 381.86 829.4 381.71 829.65 381.79 829.52 381.97 829.19 381.86" style="fill:#52bedc"/><rect x="830.01" y="381.67" width="0.29" height="0.3" style="fill:#52bedc"/><polygon points="830.88 381.71 831.14 381.41 831.43 381.71 831.34 381.97 830.88 381.97 830.88 381.71" style="fill:#52bedc"/><polygon points="834.87 379.25 834.99 379.1 835.11 379.25 834.99 379.42 834.87 379.25" style="fill:#52bedc"/><g id="endpoint_2"><polygon points="779.29 371.66 807.99 371.83 808.38 371.66 808.84 371.66 808.99 371.93 809.15 371.66 809.41 371.66 809.55 371.93 809.77 371.66 812.56 371.66 813.03 371.8 813.52 371.85 814 371.66 815.13 371.66 815.39 371.94 816.27 371.94 816.6 371.66 816.85 371.66 817.22 371.88 817.11 372.19 816.85 372.28 816.56 372.52 815.42 372.52 815.18 372.39 808.02 372.35 807.7 372.52 806.83 372.52 806.65 372.37 805.66 372.36 805.43 372.52 804.54 372.52 804.19 372.36 801.47 372.37 801.08 372.52 800.54 372.52 799.66 372.27 798.51 372.22 797.42 372.52 797.16 372.47 796.82 372.37 795.42 372.39 795.14 372.52 778.51 372.52 779.29 371.66" style="fill:#52bedc"/><path d="M819.83,375.31a3.16,3.16,0,1,1,3.15-3.16A3.16,3.16,0,0,1,819.83,375.31Zm0-5.45a2.3,2.3,0,1,0,2.29,2.29A2.3,2.3,0,0,0,819.83,369.86Z" style="fill:#52bedc"/></g><polygon points="822.28 370.8 823.43 370.8 825.19 370.99 841.99 370.86 841.74 371.37 825.14 371.37 824.69 371.25 822.6 371.21 822.28 370.8" style="fill:#52bedc"/><polygon points="822.86 371.94 826.29 371.94 828.44 372.08 837.18 372.26 841.51 372.2 841.99 372.21 841.61 372.52 841.17 372.52 828.58 372.52 826.5 372.15 826.26 372.23 825.77 372.4 824.43 372.3 823.67 372.23 822.86 372.23 822.86 371.94" style="fill:#52bedc"/><path d="M845.74,371.09h.86l.18.28.41-.28h.56l.39-.29a3,3,0,0,0,.39.29,1.3,1.3,0,0,1,.29.14l.07.14.29-.28h2l.22-.29.41.29.26.28.26-.28h.85l.59.28.88-.28h7.4l.29.28h.29l.38-.28.47.19v.09h.29v-.28h.86l.32.28h11.12l1.41.35-2.46.22h-5l-.14-.22-.43.22h-.57l-.27-.25-.28.11-1.67.06-.19-.11-.17.19H865.2l-.34-.19-.18.19h-.91l-.48-.28-4.94,0-.52.3h-.35l-.24-.32-12.25,0Z" style="fill:#52bedc"/><polygon points="844.44 374.2 845.15 374.34 843.9 374.54 844.44 374.2" style="fill:#52bedc"/><polygon points="843.26 376.63 844.26 377.04 843.81 377.38 842.88 377.38 843.26 376.63" style="fill:#52bedc"/><polygon points="845.2 372.14 850.32 372.23 850.32 372.52 849.75 372.52 849.36 372.8 848.89 372.8 848.45 372.52 846.6 372.52 846.1 372.8 845.74 372.52 845.08 372.47 845.2 372.14" style="fill:#52bedc"/><rect x="853.76" y="372.23" width="10.87" height="0.57" style="fill:#52bedc"/><polygon points="865.21 372.65 865.74 372.53 866.05 372.23 866.34 372.23 866.34 372.77 866.34 372.8 865.49 372.8 865.21 372.65" style="fill:#52bedc"/><polygon points="867.48 372.69 867.77 372.52 868.04 372.52 868.37 372.65 868.09 372.8 867.77 372.8 867.48 372.69" style="fill:#52bedc"/><polygon points="871.25 372.52 871.21 372.8 876.64 372.8 876.64 372.52 871.25 372.52" style="fill:#52bedc"/><polygon points="878.28 370.5 878.8 370.23 879.22 370.23 887.52 370.23 887.52 370.51 886.38 370.8 886.12 370.72 885.93 370.61 882.95 370.64 882.9 370.8 882.65 370.8 882.54 370.67 879.46 370.51 878.93 370.51 878.77 370.8 878.28 370.5" style="fill:#52bedc"/><rect x="885.8" y="371.66" width="0.25" height="0.57" style="fill:#52bedc"/><path d="M888.09,370.8v-.29l.3-.28h1.13l.26.28s-.26.3-.3.29Z" style="fill:#52bedc"/><polygon points="897.53 377.09 898.39 377.09 898.39 377.38 897.53 377.43 897.53 377.09" style="fill:#52bedc"/><polygon points="911.85 372.8 912.08 372.53 912.38 372.8 912.12 373.09 911.85 372.8" style="fill:#52bedc"/><polygon points="918.75 372.81 919.25 372.53 919.8 372.81 919.36 373.09 918.75 372.81" style="fill:#52bedc"/><polygon points="925.28 372.96 925.55 372.81 925.84 372.96 925.56 373.09 925.28 372.96" style="fill:#52bedc"/><polygon points="847.3 377.1 847.74 376.8 847.96 376.52 848.32 376.81 849.46 376.81 849.57 377.09 849.75 377.09 850.09 376.81 850.61 376.81 850.89 376.81 851.38 376.51 852.08 376.81 853.18 376.81 853.43 377.1 853.74 376.81 855.47 376.81 856.04 377.09 856.62 377.09 857.05 376.81 858.33 376.81 858.67 377.09 860.91 377.09 861.2 376.81 861.77 376.84 862.05 377.22 861.72 377.38 854.9 377.38 854.46 377.26 853.47 377.38 852.9 377.38 852.63 377.3 852.31 377.38 851.75 377.38 851.53 377.25 850.43 377.29 850.3 377.38 849.75 377.38 849.37 377.29 848.9 377.3 848.61 377.38 848.32 377.38 847.18 377.27 847.3 377.1" style="fill:#52bedc"/><polygon points="847.76 379.96 848.04 379.69 848.29 379.96 848.02 380.23 847.76 379.96" style="fill:#52bedc"/><rect x="850.61" y="375.95" width="0.86" height="0.29" style="fill:#52bedc"/><polygon points="855.2 373.93 855.35 373.65 855.45 373.93 855.32 374.2 855.2 373.93" style="fill:#52bedc"/><polygon points="857.18 376.24 857.47 375.95 857.76 376.24 857.47 376.51 857.18 376.24" style="fill:#52bedc"/><rect x="858.33" y="375.95" width="0.3" height="0.29" style="fill:#52bedc"/><rect x="859.19" y="375.95" width="1.14" height="0.29" style="fill:#52bedc"/></g><g id="CyberpunkBlue"><path id="C_blue" d="M172.13,298.21l18.56-8.41,16.57-5L303.12,246l24.26-4.08,2.29,1.32.21.76,2.63,2.31-7.18,3.82-8.89,4.29-10.85-1.72-1.69,0-85.67,47.42,10.64-.52,24.79-.82L290.4,298l6,.64,17.14,2.58,2.29,1.48,2.27,1.4,2.79.48,1.48.12,1.45,2.05.64,4s-2.57,2.73-3.72,4c0,0-4.57,5.14-5.19,5.43h-1.12L313,319l-.53-.26-1.88,0-2.1.54-2.31,0-.57-.29-.6.29-8.11.31L256,322.26l-30.41,1.62H199.71s-11.12,1.52-31.91,2.57h-1s-4.1-1.09-14.59-5.67l-12.35-5.91,1.57-1.29,17.31-7.92,2-1,6.39-2,5.34-2.57,1.38-.53Z" style="fill:#52bedc"/><path id="Y_blue" d="M321.24,294.72a41.77,41.77,0,0,0,.27,6.39s.75,3.18,2,4.18c0,0,4,3.36,4.53,4.07,0,0,3.16,3,4.26,3.18l4.73-2.93-4.42,5.94-1.76.56-1.2,1.47-2.41,4.8-22.5,27.43-1.45.62-.2.27-.21,2.83-4.36,4.32-1.08.68-.23.31-.84,3.81-17,20.31-1.65,3.33-.68,2s-2.46,3.47-3.68,3.37l-2.32,3.14s-3.54,5.73-5.83,7.73h.5a18.91,18.91,0,0,0,4.18-2.9s11.77-15,13-16c0,0,2.15-2.79,2.93-2.79a4.61,4.61,0,0,0,1.58-.93,7.72,7.72,0,0,1,5.47-2.57s5.83-4.4,12-5.73a1.84,1.84,0,0,1,1.86.76l73.62-89.37,3-3.55h-3.76l-18.5,1-25.35,18.76H329.6l-4.15-5.51-1.72-1.28Z" style="fill:#52bedc"/><path id="BER_blue" d="M603.23,293.62l3.86-1.82-1.75-2.68-16.81-8.73-31.9-.39-47.07-1.51-49,1L454.63,282,451,288.5l-8.4-.2-30.42-8.77L444,241.12a6.89,6.89,0,0,0,1.69-3.54s.35-4.72-1.36-7.9l.87-5.61a11.48,11.48,0,0,0,2.31-4.34,3.76,3.76,0,0,1,1.79-1.71,3.73,3.73,0,0,0,1.24-1.55l4.91-6.7s.26-1.08-.38-.65a17.68,17.68,0,0,0-3.67,4.53s-.24-1.12-1.05.1c0,0-.72,1.52-1.86,1.57,0,0-2.55,3.22-2.53,4.91,0,0-1.17,3-2.67,2.91l-5,12.54-25,24.82-24.68,30.4-15.09,9.23-4,2.5-.8,1L368.2,309l-12.59,11.71-1.12,1.47,2,1.15-8,10.08-1.39,2.44,7.37,5s10.78,7.56,13.35,8.85l20.41-15.05,31.19-23.08,20.17-14.68-.24,1.76L436,302.42l-.81.29-1.63,2.19-1.78,6-6.7,6.25-.22.19-.86,1.28-2.83,3.91-.55.79-.38.6,1.24,1.21.35.5s-.74,1.94-.4,2.53l8.3,6.56a1.5,1.5,0,0,0,1.78.31l3.1-1.1,1.34,0s20-6.74,51.16-10.68c0,0,4.26-7.47,5-10.51h-2.29l-16.77-.29-3.26.29-3.86.86-5,1.36-13.41,1.82s4.33-7.9,5.43-8.87l38.52-4.36a19.32,19.32,0,0,0,3.33-5,37.76,37.76,0,0,0,2.22-3.4v-.47l-5.15,0-30.9-1.43,1.85-3.4L481.2,289s1.18-2.47,3.19-2.61l24,.32,3-3.26,2.34,10.19s-9.92,11.54-10.4,11.82-5.15,6.68-5.15,6.68l-.73.86-4.55,10.12.33.68-3.47,8-4.3,11.05-.57,2.54a69.86,69.86,0,0,0,10.87,11.76s6.48-14.77,7.19-16.34l10.78-23.28,11.5,4.72s13.92,6,14.27,6.36c0,0,15.31,5.69,16.6,6.12,0,0,20,7.87,27.36,8.87a95.21,95.21,0,0,0,7.15-6.58,37.93,37.93,0,0,1,4.44-4.11,7.4,7.4,0,0,0,1.68-2.76l-2.94-1.11-7.18-6-13-4.36L562.53,315l-4.35-2.54-1.52-.68-5.15-1-.82-1,23.14-6.15S594.65,297.63,603.23,293.62Zm-198.67,8.8-1.72,1.1-24.55,16.92,14.83-18,8.53-9.73,15.5.86Zm123-.38-7-4.25,4.24-9.91s33.95,0,44.21.9l4.24,2.43Z" style="fill:#52bedc"/><g id="PU_blue"><path id="_Path_" data-name="&lt;Path&gt;" d="M757.84,282.82l-1.34-2.43a10.33,10.33,0,0,1-2-6.56l1.69-1.57a3.39,3.39,0,0,1-.53-.93,26.68,26.68,0,0,1,1-7.51l-1-.12-1.41.38-23.61,39.41-5.36,6.37-9.94,5.58-7.51,5.79-4.06,1.84-7.15,4.48-.26-.86,4.53-10.8c.19-.57,2.43-8,2.43-8l-.07-2.26-.36-.81,0-4.53L725,292.41a130,130,0,0,1,3.55-17.62,5.06,5.06,0,0,1,.79-1h-1.11l-.73,0-1.45-.45-27.67,2.15-53.49,1.87-10.92.4-11,12.59-14.24,21.46-.4.57L608,313,597.35,318l-4.64.12-.57.33,1.25,2.7-2.86,1.38,4.87,3.72a22.12,22.12,0,0,0,4.86,3l-1,1.93-5.68,20.46-19.46,36.1L566,406.13l-2,4.73a6.13,6.13,0,0,1,2.67-2.25,6.55,6.55,0,0,0,3.77-3.48c4.58-11.3,8.25-16.31,8.25-16.31a5.91,5.91,0,0,0,3.1-2l1.62-.38c4-4.24,11-8.15,11-8.15,2.95-1.39,3.38-2.91,3.38-2.91l3.44-7,15.26-30.71a80.12,80.12,0,0,1,4.57-9.2c.91-2,2-1.91,2-1.91L689.34,305l-.52.6-.39.88.57.66-5.34,10.35-.9,1.91-3.87,18.21c-1,1.53-.66,2.24-.66,2.24l9.77,7.59c2-2.1,10.21-7.73,10.21-7.73,1.24-.71,11.44-7.72,11.44-7.72l5.68-3.77s-2.34,8.3-3.63,9.35-1,3.33-1,3.33c2,0,4.72,2.1,4.72,2.1L723,347.1l9.73-19.55a86.59,86.59,0,0,1,4.91-8.35c1.29-3.86,5.44-10.2,5.44-10.2l7.34-12.83,7.51-12.68Zm-91.15,15-21.46,6-9.78,2.07-2.72.77,1.29-2.77v-.62l2.91-5.35a50.24,50.24,0,0,1,3.41-5.71l51.48-3.51Z" style="fill:#52bedc"/><polygon points="755.93 262.04 758.3 258.07 758.77 258.07 759.03 258.41 758.11 261.18 757.93 262.44 756.78 262.1 755.93 262.04" style="fill:#52bedc"/></g><path id="N_blue" d="M739.16,328.34l-2.36,5.86-1.51,3.41.5-.24,3.17-.09a95.28,95.28,0,0,1,11.77-1.67l1.77-.26L753,335l14-24.56L773.64,338l12.59-.34,14-24.91,16.91-31.19h-3.72L792.6,297.88l-3,2.43-1.09.46-.45.76-.27.75-2.59,9-1.68,2.15-3.08.47-3.21-4.19-7.05-5.11-4.54-1.15-19.71,12.16-2,1.5-.37.72-.22,1.54-1.11,3.32Z" style="fill:#52bedc"/><path id="K_blue" d="M845.74,275H848l-10.73,20,82.07-38.19,7.73-3.53,3.71-1.72,1.77-1.14H933v.57l-2,3.1s-5,2.24-6.82,6L920.47,266a6.73,6.73,0,0,1-2.51,1.63l-21.62,10.56a14.4,14.4,0,0,1-3.86,3.24L852.9,302.18l4.58,2.67,9,6.58,6,3.53-.14.43,2.62,1.91-2.34,1.09.91.62,2.62,1.89,1.62.69,1.14.59a13.94,13.94,0,0,1,.63,2.27l-.18,1.07L900.59,338l57,32.65v1.9l2.15,1.82.1.47.62.57v.86l1.16,3.93.27.39v2l.85,1.27-.17.45h-.4L960.55,383l-77-40.77-30.4-16.45a9.65,9.65,0,0,1-2.14-2.15l-22.32-12.34L820.46,326l-7.15,12.7a30,30,0,0,0-1.9,4.51l-.5,0s-10.37-6.94-12.84-10.3a113.92,113.92,0,0,1,7.37-14.8l.43-.72,3.07-2.54,3.76-12.23-.41-1.06.82-1.18,9.21-7.85L834.23,280l10.33-5.9Z" style="fill:#52bedc"/></g><g id="CyberpunkYellow"><path id="C_top" d="M328.74,239.17,325,236.9l-.23-.57-8.28-5.15h-1.17L308,234.32l-1.07-.85-.35.18s-7.95,4.53-12.52,5.87c0,0-10.41,4.84-13.94,7.41a20.1,20.1,0,0,0-3.73,2.28s-.38.47-3.91,2.29c0,0-8.59,4.19-11.83,5.91,0,0-24.32,11.63-27.85,13.16l-39.48,18.07-2.58,1.19h2.1l-9.54,5.63s-1.24,0-1.71.71l-.39.81h1.34a1.92,1.92,0,0,0,1.33,1.72H186l.48-.43.43.11,1.6,0,.07-.25.86,0v.28h1.14l.61.58H192l.61.57h1.11l.25-.34.07-.5.25,0,.27.25H196l.36.56h1.37L198,299l1.94,0,0,.57h1.72l.3-.57h1.72l.54.84h.59l0-.25,1.09,0L206,299h1.39l.55.57.29,0,0,.25h.84l.27,1.43h4.88l0-.84.34-.23h2l0,1.37h4.85l0-1.13.33-.28,5.66,0v-.27l1.43,0,0-.25-5.72,0-11.61.28-.12-.3,11.14-6,0-1.12h.6v.83h.26L302,250.34l9.89,1.72H313v-.28l19.64-9.47S332.53,241.41,328.74,239.17Zm-140.5,54.38H188v-.29h.26Zm3.41,0h-.24V293h.24Zm4,0h-.3l-.27-.29v-.56l-.28-.28h.56V293l.29.28Zm.27-1.43h-.56v-.29H196Zm1.16,1.72h-.86v-.29h.86Zm2.29-.29h-.57v-.86h.28v.57h.29Zm1.43.29h-1.14v-.29h1.14Zm2.56-.29h-.56v-.29h.56Zm.32-1.72v.29h-.3l0-.29Zm1.13,2h-1.43v-.29h1.43Zm3.43,0h-.57v-.29h.57Zm1.43-1.72h-.29v-.29h.29Zm2,1.72h-.28l-.1-.29h-.48v-1.14h.58v1.14h.28Zm.85-.86h-.28v-.29h.28Zm2,1.12h-.28v-.55h.57Zm2-1.41H216v-.28l.24-.29h.37l.24.36Zm1.71,1.72h-.57v-.29l.57,0Zm1.73-2.29h-.26l-.05-.29H220Zm1.71-.11h-.29v-.18h.29Zm2,.11h-.86v-.29h.86Z" style="fill:#fff000"/><polygon points="264.94 318.69 270.09 318.5 266.67 319.01 264.94 319.01 264.94 318.69" style="fill:#fff000"/><polygon points="310.43 317.01 311 317.01 311 317.3 311.57 317.3 311.57 317.01 312.72 317.01 312.13 317.87 311.57 317.87 310.43 317.01" style="fill:#fff000"/><path id="C_bottom" d="M320.44,302.18l-4.81-.09a26.73,26.73,0,0,0-2.34-1.77,34.73,34.73,0,0,0-6.91-5.77,3.74,3.74,0,0,0-2.72-.33A31.12,31.12,0,0,1,293.22,297l-46,1.72v.55l1.43-.26h4.06l.79.57,2,0,1.13-.33.34-.26.55.55.27.3h1.16l.29-.25.54,0,.34-.27h.55l.59.29h.57v.27h1.43v-.28l.27,0,.59-.55h.54l.61.55.53,0,0,.25h1.43l.88-.57h.85l.56.57,1.72,0,.87-.54h.84l.31.54,2,0,.32-.56h1.13l.29.28h.57l.29.29,1.44,0,0-.23,1.16,0,.83.57.82,0,.86-.65,1.75,0,.27.32,2-.07,1.42-.5.07.57,2.56,0v-.28h.6l1.4,1.14h.53l1.18.86h2l.27.32-.25.25h-4l-.26.29v.27l-2.55-.29-1.17,0-2.9.31-.54.25L285,303v-.27l-2-.28-.87,0-.59.29V303l-1.42,0-.31-.27-2,0-1.1,0-.29.25L275,303v-.32l-4.29,0V303h-.28v-.31l-3.72,0v.23l-.58-.21-1.74-.05-.12.31-.14-.28h-2.57V303l-2.31-.05-.27-.23h-.57l-.31.27-1.38,0-8,.34-.38.28-.78,0-.29-.53h-1.1l-.4.23-.79,0-.57-.26-.81,0-.62.5-.31,0-.26-.26-2-.29H238l-.59.18-.26-.46h-1l-.47.32-.24,0v-.31l-.25,0-.39.5-.53,0L234,303h-1.72l-.19.26-.95,0v-1.41l-1.15,0V303l-.5.57-.38,0-.26-.24-2.67-.05-.19-1.69h-.84l-.64,1.41-.24,0v.26l-.92,0-.27-.22-1.07,0-.29.33-.29-.36-.59.05v.29h-.46l-.19-.28-3.36,0-.26-.81-1.19-.1-.84.93h-1.71l-.41.29-1-1.46-1.7,0-.31,1.14h-.57l-.17.55-.11-.57-3.15,0-.31-1.09-.84,0-.28.84-.31.26-.26.07v-.28l-1.72,0-.34.26-1.12.05-.26-1.43h-.86l-.28.31-.29,1.12h-.29l-.28-.26-2.55-.05-.26.26-.34.05v-.28l-.25-2.56-4.3,0,.55.57h-5.15v-.55l-6.3,0-.52-.27-.34.24-1.95.05-.34-.29h-.83l-.91.85-1.4.3v.57h-.29v-.29h-.52l0-.5.28-.07v-.26l-.07-.26-8.84,3.12a48.78,48.78,0,0,0-7.92,3.13,34.63,34.63,0,0,1-8.34,2.57h-4.91l-2-.45a36,36,0,0,0-5.45,3C145.28,317,162.58,324,162.58,324h.67c1.36,0,15.71-.64,15.71-.64l19.89-2h19.48l23.7-.9,0-2.53,11.16,0-3.46.27V319l-.28,0v-.28h-4l-.54.28h-1.73l0,.86.57.29,8.94-.27,12-.88v-.26l-3.09-.45,4.71-.14.39-.29V317h-.29v-.28l.48,0,.35.3,0,.86h.51l.06.29H268l.44-.25,3.9,0v.29l22.61-.88V317h-4.4l.4-.57h5.7l0-.29h17.35l7.35-8Zm-160.74,3.1h.5v.55h-.5Zm0,2.34h.3v.22h-.3Zm-2.86,3.1h-.29v-.29h.29Zm2-3.45h-.48V307h.48Zm.9,4.3v-.85h.86l.34.85Zm1.72-2.34h-.29V309h.29Zm.86-3.59h-.29v-.36h.29Zm1.09,1.63h-.48V307h.48Zm6.68-3.13h.33v.26H170Zm0,1.14h.48v.27H170Zm-5.15-1.3h.38v.42h-.38Zm.49,1.3v.27h-.24v-.27Zm-.83,3.72h.29v.23h-.29Zm-.87-3.72h-.22V305h.22Zm2.3,6.29h-1.09l-.6-.85h1.69Zm2.28-4.22H168V307h.22Zm3.45,3.6-.58.34v.28h-.61l-.58-.78,1,.18.77-.25Zm2.29-3.68h0v.34h-.52v-.34h-.34V307H174Zm1.21,4.3-.37-1.69.59-.31v.81l.85,1.19Zm.5-6.29v.57h-.28v-.57Zm-.28-.88v-.21h.28v.21Zm1.14,3.46h-.3v.32H176v-.32h-.32v-.29h.86Zm1.15,3.43-.58-.29v-.28h.58Zm-.58-2V309h.24v.29Zm-.57-6.58-1.14-1.15,0-.27-.6,0v-.57h2.58l.57.57h.29v1.15l-.34.29Zm2.86,4.57v.29h-.86v-.29h-.28V307h1.14Zm1.72-2.86h-.57v-.28h.57Zm.09.86v.57h-.31v-.57Zm-.38,2.29v.27h-.28v-.27Zm-.28-1.47H180v-.25h.58Zm1.05,5.47h-1.05v-.85h1.14Zm1.24-.67-.15.05-.14-.23h.29Zm.57-8.49V303h-3.75l-.27-.57h-.56v-.57h.54l.29.15,3-.15h.57l.13.27Zm1.14,5.16-.86-.3V307h.86Zm2.58,4h-1.43l-.29-.78v-1.22H186l.09.88.75.37.31.52Zm-1.74-5.47v-.43h.23v.43Zm.76-.82v.57H186v-.57Zm-.17-.88v-.26h.34v.26Zm.79,3.62-.5.16v-.61h.86Zm1.22,1.84h-.29V309H188ZM185.1,303h-.84v-.57l3.06.05.37-.62h.25l.89,1.14Zm4.39,4.58-.37-.29V307h.28l.27.28Zm2.2,4h-.85v-.28l.57-.29.27.29Zm-.85-7.15v-.28l.28.16Zm.28,1.47v.21h-.25v-.25Zm0,3.4v.57l-.28-.57Zm.86-1.15-.43-.27h-.43v-.23l.59,0,.27.22Zm1.15,2.81h-.58v-.23h.58Zm0-8h-2.29l-.67.14-.19.15v-.86l1.06,0,.08-.61h.29v.28l1,.06.11-.06h.58Zm1.43,4.58-.84-.3L194,307h.58Zm.85-1.72H196l.59-.28.26.32v.25h-1.43Zm.86,1.72v.27H196v-.27Zm.29,4h-1.15V311l.29-.28h.86Zm.57-3.43h-.29v-.28h.29Zm.57,1.66v-.51H198Zm2.29-2-.22.09-.59-.87h.56l.25.28Zm2.29,3.79h-1.47l0-2h.57l-.19.29-.09.86h.78l.36.28Zm0-3.43h-.86v-.28h.86Zm-1.47-2,.61-.57v-1.15h.29l0,1.34.54.38Zm2.62,4.86-.29-.07v-.21h.29Zm0-1.14h-.29v-.57h.29Zm1.14-2.29h-.29V307h.29Zm0-2.86h-.31v-.29h.31Zm1.7-.29h.85v.29h-.85Zm-.21,1.41.51-.26h.27l.28.28v.29l-1.14,0Zm.56,4h-.35v-.57h.28Zm-.35,1.71-.08-.57-.21-.07v-.5h.29v.43l.85.21,0,.5Zm1.16-3.52-.56.09v-.28h.56Zm.84,1.84-.29-.09v-.23h.29Zm3.43-5.47h.57v.36l-.57-.07Zm-1.14,3.44H210v-.58h.57Zm.87-2,.29-.07.58-.21.26.28v.29h-1.43Zm.84,5.72h-.57v-.85h.57Zm.58-3.43h-1.15l0-.28h1.17Zm.68,1.72-.11-.57H214Zm3.61-5.44h.28v.36l-.28-.07Zm-.29,1.43h.86l.27.29h-1.13Zm-1.7,1.43.84.58h-.85Zm2,4.29H216v-.28h1.15Zm0-1.68-.29-.09v-.23h.29Zm.57-1.75v-.28H218l0,.28Zm.86,3.43h-.48l-.09-.28h.57Zm.54-1.71H219l-.12-.57.25.09Zm0-1.75h-.28v-.25h.28Zm1.47-.25v-.58l.23.58Zm1.66,3.71-.55-.28h.85Zm2-.28H224l.29-.56Zm4,.28h-1.44v-.28l1-.57h1l-.57.57Zm1.13,0v-.28h.29Zm.57-1.84-.28.16v-.32H230Zm4.74-.73.38,0-.38.27Zm.7,2h-.57l-.25.57h-2.33v-.28l1.17-.57h2Zm5.65.15-1.16.42h-1.63v-.85l1.41,0,.38-.27h.79l.3.29Zm4.69.12-.15.3h-1.89l0-.3.93-.55h1.33ZM251,309l.08,0,.37,0v.52l-.57-.27Zm.45,2v.55H249.2v-.25l.69-.6h1.88Zm.29,8.21h-.57V319h.57Zm4.33-7.66h-2v-.28h.86l1-.57h.75l-.55.57Zm.82-2.25h-.57V309h.57Zm4.29,1.68-.29.29v.28H259.5l.07-.28.33-.57h2.18Zm5.15.57-1.72-.07v-.78h1.72Zm1.14-2.3-.28.34-.29-.61h.57Zm.86,7.74v-.28h.57Zm4-6-.85.08v.5H269.8l.23-.25,1.08-.6H273Zm4.64.28,0,.3h-1.45l0-.3,1-.55h1.28Zm3.38.3V311l.18-.28.68.85Zm2.29-1.68v-.6H283Zm5.72,1.4-.23.28H286.4l0-.33.26-.52h.58l.16.28h.69l.29-.28Zm20.6-8.87h.29v-.29h.57v.29l-.3.29H309Zm-2.29-.86h.56l.3.29v.28h-.86Zm-5.44,0h.86v.57h-.58l-.28-.28Zm-10,10V311H293l.28.57Zm4.58,0v-.28H297l.11.28Zm3.11-8.86h-.25l-.29-.29v-.29h.8l.05.29Zm2.05,7.86a47.9,47.9,0,0,1,9.94,0S303.11,311.05,301,310.57Zm11.43-8.52h-.27v-.2h-.3v-.29h.57Zm2.29.66h-.27l-.16-.29h-.43v-.29h.55l.31.29Z" style="fill:#fff000"/><path id="Y_top" d="M361.45,276.63l-10.54,8.59c-4.89,3.82-15,12.59-15,12.59l-1.14.39,1.14-23.67c-.93-2.7-2.22-3-2.22-3-1.62.5-6.92,4-6.92,4l-6,4.76c-1.43,13.11,1.52,20.69,1.52,20.69l.66.9c2.82,3.72,9.3,7.78,9.3,7.78l9.73-6.54c-.86,2-11.06,13-11.06,13l8.06.09.66,1.38H329.7l-5.39,6.08c-4,4.49-13,16.67-13,16.67l-8,10.1,19.08.09,10.1-12.19,13.4-16.17v-.28h-.57l-1.65.26-.07-.55h1.68l0-.86h-3.76l0-.32,2.46.25.75-.22h2.54l13.77-16.88H345.62V303h16l21.46-26,.33-.3ZM318.16,335h-.58v-.29h.58Zm.5-.58h-.22v-.28h.22Zm1.81,0h-.31v-.28h.31Zm1.41.58h-.58l.66-.81.15.52Zm20.31-13.16h.57v.85l-.57-.43Zm-.57-.29h.28v.57h-.28Zm-2.86-2v-.29h.57v.57H339Zm.84,9.72H339v-.57h.9Zm4-11.39-.24-.09-.05-.25h.29Zm1.72-.05-.86-.12v-.17h.86Z" style="fill:#fff000"/><path id="Y_bottom" d="M319.87,352.49l-.28-.29h1.18l.93-1.11-18.57-.39-5.65,7.83.65,0-.07.25-.81.09L287,372.12l-16.06,20a53.91,53.91,0,0,0-5,6.69,10.13,10.13,0,0,0-2.76,2.9l4.83-2.54,5-6.48,4.65-5.5c1-1,6-7.16,6-7.16.47-.57,2.08-.39,2.08-.39l1.93-2.61a11.65,11.65,0,0,0,4.57-1.22l8.8-5c2,.32,4.9-1,4.9-1l14.5-17.38Zm-16,6.29h-2v-.28h2Zm2-6.29h-2.52l.27-.26,2.25,0Zm1.72,6.29v-.28h.57l.32.28Zm2.25-6.29h-.25l-.28-.29h.85Zm3.76,6.58-.46-.06-.31-.23h-.38v-.28H313l.25.28h.32Zm1.43-6.58h-1.15v-.29H315Zm2.29,0v-.29h1.43l.27.29Z" style="fill:#fff000"/><path id="BER_top" d="M600.51,278.67a3,3,0,0,0-1.43-.57s-49.25-4.08-71.78-4.36l-11.58-.07a26.2,26.2,0,0,1-2.15,2.9l-59.32-1s-5.15,6.34-5.53,7.54a16.69,16.69,0,0,1-2.53,3.33L442,279l-31.09-.67,17.74-21.89,15.69-19.36a48.2,48.2,0,0,0-.48-7.34s-.71-5.58,0-7c0,0,2.48-3.67,2.72-5.06a4.69,4.69,0,0,1,1.57-1.43,1.94,1.94,0,0,0,1.15-1.33,10.9,10.9,0,0,1,1.43-2s3.43-4.29,3.77-4.95c0,0,.28-1.2-.53-.72l-3.1,3.67-1.14-.09a20.05,20.05,0,0,1-2.2,2.57s-2.81,3.24-2.86,4.63a9.65,9.65,0,0,1-3.24,4.15,31.23,31.23,0,0,0-3.67,4.57s-2.29,4.77-3.63,5.15c0,0-.33,1.86-1.81,2.05,0,0,.1-1,.76-1A4.41,4.41,0,0,0,429.6,235a1.49,1.49,0,0,1-1.58,1l-2.11-.11L409.44,255l-17.62,20.19-16.89,20.75-5.6,7,21-.1,11.16-13.12L420.12,291l0,.39L404,302.81l20.28-.18,0-1.12.79,1.2h2.36l15.63-11.43L435,302.71h3.29s5.83,6,7,6.29l1.53.29h3.22s1.76-3.51,3.15-4.62L491.57,301s4.83-8.58,6.48-9.37L459.78,293s2.54-5.47,2.65-5.94l18.24-.39s1.78-3.08,2.82-3.15l21.28.07,3.58.29s2.93-3.65,4-4L497.48,313h10.08l13.09-1.17.07-.24H521l0,.31,1.72,0,0-.31,2.05,0,15.64,0,.61.57v-.59h.4l.38.43,0-.43.57,0,.1.27,14.12-.09-8.47-3.43.11-.86,1,.32,9.44-2.55V305H559l0,.17,3.81-1,0-.28h.27l0,.21,7.65-2.07,22-6.58s13.26-3.76,14.3-7.15C607.09,288.26,601.55,280.78,600.51,278.67ZM448.34,300.42h3.14l-.09.28h-3.05Zm-.58-.29-.3-.09-.18-.17-.3-.27.49.17.29.07Zm6.3,1.43h-5.72v-.29h5.72Zm75.53,7.15h-.28v-.57h.28Zm4-.57-.58.57v-.85h.58Zm3.72,0h-.58v-.28H537v-.58h.29Zm3.75,0h-.32v-.57h.32Zm3.69.29-.29.28h-.29v-.57h.29v-.86h.29Zm14.59-4h-.29v-.57h.29Zm.1-1.73h-.39v-.27h.57Zm.76.23h-.29v-.21h.29Zm-6.39-10c-4.15.86-26.76,6.91-26.76,6.91-1.28-.95-7.2-2.95-7.2-2.95l4.63-11.4c17.12-.52,51.17,1.19,51.17,1.19C574.37,287.49,553.82,292.93,553.82,292.93Z" style="fill:#fff000"/><path id="B_bottom" d="M424.28,304.76,412,304.42v-.86h-9.16l-18.9,12.88c-1.7,1.05-6.2,4.27-6.2,4.27l.5,0V321h-1.17l-1.1.57.22.79-1.29,0-.09.31h-.58L375.4,321l-1.74,0v.76l.2.62-.51-.29-.05-.83-.76-.31,0-.24h3.12l14-17.17H368.8l-13.19,17.15,1.46,0v-.29h.52l.05.29h1.17l-.05-.21.29-.08,0,.29h2.77l.4-.24.29.22,4.81,0-.47.43.5,1H366.2l-11.71,0-7.77,10.48,7.51,5.24c2.6,2,12.52,8.23,12.52,8.23.9.55,1.17.38,1.17.38l8-5.82,9.72-7.15,0-.24h-1.43l-.55.3-.05-.35-2.48.05-3.46.26,0,.57-.86,0v2h-5.1l-.08-.6-.81-.52.81-.1.05-.5-1.76,0-.84.33H356.23l-1.14-.3.59-.53,2.82,0v.29h.57l.26-.26,5.46,0v.29h.81l.34-.29h2.74l.4-.86h2.51l-.22-.43.29-.42h5.7l1.38-.3.07-1.14h-1.07l3.36-1.14.91,0,1.09,1.16h2.28l0-1.41.27-.05v.32h2.57v-.31l.26,0,0,.29h.64l.22-.26,0-.57-.24-.31h.81l.05.85h1.64l1.79-1.43h-2l0-.25,1.41-.32h1.31l4.94-3.71-5.41-.08,0-.21h5.72l2.53-1.85-.81.42h-4.72l-2.79.52-7.63,0L384.65,321l-1.76-.27,1.67-.35,3-.24.43.26.86,0,.28-.24h.64l.51.28h.5l.31-.27,1.28,0,.43.21,10.61,0,2.89-2.2-15.17-.07.08-.24.78-.59,10.23.26,5.44-.26,15.59-11.66-11.18-.29,11.63-.07Zm-59.77,13.63-.29.34h-.57v-.57l.28-.29h.58Zm.85-3.95h-.28v-.58h.28Zm-12.63,12.87h-.24V327h.24Zm.83,7.58-.21.15v-.29h.21Zm17.81,2.7,2.08-.27h1.93l.81.27.25-.27.08.27v.31l-5.15-.07Zm-11.44-8h-.29l-.28-.29h-4v-.52l.56-.22,3.71-.09,0,.61.29.22Zm1.14,0v-.29h1.41l.31.29Zm2.82,0h-.53l.29-.29h.24Zm1.19-.57v.28l-.09.3-.52-.56.25-.3h.36Zm5.46-8.3h.55V321h-.55Zm-.88,1.45.61-.3h.53v.57h-1.14Zm-1.43,7.42h-1.46l.46-.43.15-.14h.44l.41.28Zm.85-8.58h-.52l.26-.29h.26Zm.29,8.58V329l.57.29h.86l.48-.27.35.57Zm2.53-7.15h-.13l-.14-.29.27-.28Zm1.76,7.15h-1.14l.21-.56.19.28h.74Zm1.69,0h-.54v-.29h.54Zm3.17-7.15H378v-.29h.57Zm8.3,4.86H388l-.24.57h-1.19Zm0,1.15h.29v.28h-.57Zm2.29-10.33h-.28v-.26h.28Zm1.36,0h-.79v-.29h1.15Z" style="fill:#fff000"/><path id="E_bottom_1" d="M433.46,304.71h4.29a4.53,4.53,0,0,1,2.81,1.38l4.31,4.53,2.61.12V311h1.71l-.85,1.43h-.86l-.65-.59-1.93,0-.21-.28-.57.24-1.6.31-1.19,0-.22-.26h-6.79l0,1.18-.21.25h.24l0,1-.8.49.27.47.56,0-.05,1.93-9.42.05Z" style="fill:#fff000"/><path id="E_bottom_2" d="M472.37,313l.26-.29.6.29H491l1.71-4.32-17.16,2.6-15.45,2.6-13.74,2.88.19-.93-3.95,0,0,2.38-3.17,0-.38-.31-.48.28-7.08.06-.62.25h-6.79l-.64.89,0,.33,8-.34v1.12h.85l.22-.26.62.55h11.18v-.57l.86.57v.86l-.93.29h-19.1l-.31.45-3.69.18-.55.8H422v.57h-1.78l-.43.5,11,8.37h.7a93.79,93.79,0,0,1,10-2.89l4.46-1.17-3-.57-3.88,0,.19-.22h6.89v-.28l.86,0v.31l3.12,0,5.47-1.46.56-1.17v-2l.6-.31,1.93,0,.9.31-.93.77.08,1.53.38.23h.47l2.82-.6.62-.21,1.36-.05-.72-.28-2.57,0,.19-.6.07-1.14,2.57,0,0-1.1-.46-.33,6.18,0v2.27a80.11,80.11,0,0,1,8.3-1.48v-.24l-1.15-.09v-.77l.45-.26.9,0,.65.55v.59a83.74,83.74,0,0,0,8.59-2.05v-.24l-.54-.28-1.18,0V319h2.27l1.45-2.85h-5.72l.05.48.16.38h-.5v-.86h-5.43l0,.29h-7.46l-.27.86-.78.86-.12-2h-4.27l.31-.86h4l.07-1.14h1.36l-.28.24,0,.83.53.38,12.87,0,.26.26,5.41,0,1.22-2.59h-.57l-.31.24-.57,0-.27-.19h-1.14l-.36.29-6.77,0-.05.31-1.12,0-.38-.25h-5.63l-.23.5-.77.07-.16-.26-1.41-.07V313Zm-21.74,12-.58.32v.83h-.86l-.57-.31v-.27l.86-.32v-.53l.86,0-.29-.82h.58Zm2.57-1.71h-.29v2.86l.29.48-.59-.22-.27-.05V323h.86Zm2.86-.86-2.29-.06v-.23h.86l.39-.28h.47l.57.35Zm0-1.43-.88.09-.25.19-1.44-.05v-.52h2.57Zm3.72,1.37h-.57v-.51h.57Zm27.16-5.95h.27l.29.29-.25.28h-.31l-.25-.27ZM483.53,319h.86v.58l-.43.28-.43-.41Zm-2.29,0h.57l.29.45v.41h-.29l-.3-.28-.27,0Zm-8,3.44h-.57l-.28-.29.85,0Zm4.58-2.92v.34h-.58l-.2-.52.48-.3Zm-1.72-1.66h1.14v.29h-1.14Zm-3.43-.25v.25h1.14l-.57.86h-.29l-.57-.58,0-.58Zm-.29-3.18h1.43l-.61.85h-.53l-.29-.34Z" style="fill:#fff000"/><g id="R_bottom"><path id="R_bottom_1" d="M586.64,323.09l-1.22.11-.06-.54-7.66-2.57-.42.35-1.41-.23-1-.12.14-.24,1.68-.08s-11-4-14.25-5.52l-4.31-1.82H515.86l-3.79.72-.18.39-1.22,0-.21-.29h-.32l-.43.25-.93,0-.11-.22h-1.11l-.46.25-1-.07-.29-.18h-1.36l-.05.29-.43,0-.07-.25h-1.45l-.27.27-2.55,0-.31.17,0-.16-2-.07-.13.32H499v.58l-2.13,0-.28.6h1v.57h-1.23l-.15.29h1.38l-.07.28h-1.42l-1.4,3.15h1.46l.27.57h-2l-.9,2,.9.29v.3h-.86l-.18-.27-.43.95s-8.37,16.59-8.54,19.31c0,0,1.93,2.07,6,7l3.58,3.9.6.43.65-.43.82,0,5.15-12.06,5.54-12.19s2.79-6.33,3.19-7.37c0,0,.46-1.36.75-1.5v-.36h-1.43l-.31-.34-.25.09-.05.25h-.25v-.57l1.11,0,.36.21,1.07,0a6.66,6.66,0,0,1,.34-.77l-.59,0,.25-.29.55,0s1.08-3.18,2.27-3.47l5.87,2.37,5.7,2.27h4v.27l-1.15,0-.07.25-.5-.27h-.86l0,.27a27,27,0,0,1,4.56,2.22l4,2.13v-.61l.29.07v.79a281.4,281.4,0,0,0,31,11.44s14.16,4.15,16.42,4.9c0,0,12.8-10.94,13.8-14ZM491,331.6v-.28h.57l.29.28Zm4,0v-.28h.35l.22.28Zm.32-7.41-.6-.09v-.22H495l.24-.28.1.28h.23ZM507,318.44h.26l.37.29h-.9Zm-1.75-1.71h.26l.35.14-.28.14h-.31l-.25-.14Zm-2,1.71h.28l.28-.24-.24.54-.56-.08Zm-1.13-1.71V317h-.58l-.28-.28Zm-2.58,1.71h.3v.3h-.56Zm-1.43-1.71.27.28-.8-.06,0-.22Zm-1.43,5.15h.59l.52.28.08.24-1.19.05Zm1.75,9.72h-.28l0-.33.32.05Zm.25-7.72v.28h-.86v-.28h.29l.35-.34.22.06Zm-1.14-4v-.57l.55-.24,0,.24h2.29l-.29.57Zm2.86,2.58v-.86h.26l.88.57v.24Zm2,9.15h-.86l.29-.28h.57Zm-.57-7.44v-.28l.59,0,.27.31Zm3.43-1.71H504l.37-.57h.29l.05.28h.52Zm.57,7.72h-.28v-.28h.28Zm0-6v-.28l.25,0,.06.26Zm.89-4.57-.31.28H501v-.57l.86.06.29-.35v.29H507l.25.29h.58v.28H507v-.28Zm2.26,2.57-.37.55-.26-.26h-.51v-.29h.28l.29-.28v.21Zm.51-5.21H509v-.22h.57Zm7.22-3.37V313H517v.29l.3.28Zm3.72,3.69h-.29v-.54h.29Zm.28-3.69h-.28v-.29H521Zm3.72,3.69h-.57V317h.57Zm.25-3.76h-.53v-.22h.28l.25-.28Zm.9,5.25v-.34l.27.07.35.21Zm2-1.49H527V317h.3l.25-.27Zm0-3.69V313l.57.57ZM564.21,317h.29v.86l-.29-.05Zm-1.72,1.72.29.16V319h-.57l-.29-.28Zm-2.28-1.43.28-.29h.29v.29l-.57.52Zm-2.87-.29-.14.57-.14-.57Zm-3.71,0-.24.5,0-.5Zm-2.31,1.72.32.14-.29.14-.3-.14Zm-1.41-5.15.29-.29h.28v.29h-.28l-.29.57Zm-.29,3.43h.29l.28.24-.24.26-.33-.21Zm-3.43-3.43h.28v.28l-.28.06ZM545.9,317h.57v.29h-.57Zm-3.74,0,0-.28h.57v.57l-.28,0-.29.18-.23-.21Zm-7.42.06V317H535v.32h-.29Zm-3.19,3.09h-.24l-.59-.29-.27-.28h1.43Zm-.21-6.3H531v-.57h.86Zm2,6H533v-.28h.29Zm1.43,2.86h-.28l-.29.29h-.29l0-.27h-.26v-.6h.86l.28.29Zm.86-2.57-.43-.07-.14-.22h-.57v-.28h1.14Zm0-6.58h-.23l-.09.28-.54.29v-.57l.63-.55.23,0Zm1.72,9.15v-.57h.57l.29.26.28.1.29.21Zm1.37-5.15h-.23V317H539Zm.63-4H539l-.29.28h-.29v-.28l.6-.57h.26Zm2.81,9.36-1,.08-.06-.86a1.61,1.61,0,0,0,.44,0l.14.29h.56Zm2-1.36h-.55v-.28l.23-.26h.32Zm0-1.42h-1.71l-.23-.29h-.35v-.28h.86v.28h1.43Zm1.09,2.75-.2.11-.31-.36v-.21h1.14Zm1.49,1.49h-.29v-.24h.29Zm1.43-4.24H545.9v-.29h2.29Zm1.43,2.57-.29.29-.28-.07-.57-.22v-.28h1.14Zm2.29-2.57h-2.58v-.57h.58l.27.22,1.73.06Zm.43,2.29h.39v.28h-.54Zm.71,6.24-.32-.11.32-.11.29.06Zm1.43-8.25v.6l-.31.49-.53.08v.27h-.29l-.29-.29v-2.27l1.18-.84.27-.05,0,1.44h1.42l.05.31-1.16,0Zm2.23,2.32-.22.26h-.29l-.29-.29v-.28h.86Zm1.49,9.13h-.86v-.29h.86Zm-.86-7.61.22-.12h.36v.24l-.29.05Zm.29-4.12-.12.26-.17-.26h-.85v-.29h2.28l.05.29Zm2.29,2.86h-.57l-.24-.29.24-.28h.57l.29.33Zm1,8.87-.13-.14.13-.15.14.15Zm3-8.58h-.58l-.57-.58v-.28h1.15Zm.89-3.15-.16.26-.31-.26-3.25,0-.18.28-.32-.26h-.68v-.29h.86l.16-.28.14.28h5.42l-.06.27Zm1.68,1.43.24.05.06.49h-.22Zm1.14,1.72-.84-.64v-.22h.85Zm0-3.44h-.28v-.28h.28Zm0-2.45L568,317h.15a2.94,2.94,0,0,0,.05.59s-.59.27-.59.27Zm1.08,7.08-.54.24h-.25l0-.29.34-.29h.48Zm.08-4.06h-.3l-.27-.28-.29,0v-.27h3.72v.29h-2.57Zm1.68,2.29-.26-.28h1.14l.58.63v.23l-1.43-.05Zm2,2.29h-.27l-.28-.28,0-.3.29-.27.54.54Zm1.45-4.86h-.29l0,.28-.27,0-.31-.28-.5,0-.2.27h-.4v-.57h2Zm1.43,3.15h-.86v-.86h.57l.29.28Zm2.57-.86h.58l.57.26v.6l-1.15-.08Zm2,2.57h-.29l-.57-.28v-.29H580Zm2.86-2-.37.29h-.78v-.86h1.15Zm.86,1.48h-.58v-.34h.58Zm3.72,8h-.58v-.57h.58Z" style="fill:#fff000"/><polygon id="R_bottom_2" points="495.26 353.63 495.83 353.63 495.83 353.94 495.54 354.21 494.97 354.21 495.26 353.63" style="fill:#fff000"/></g><path id="P_top" d="M714.2,271.52s-.64,1.79-8.44,1.43l-13.48,1.14-3,0-2.89-.54-2,0s-15.2,1.54-21.24,1.71L625.73,277l-6.41,13.64-10.84,21.46,15.24-.27,5.12-6,2.75,0s3.9-8.1,4.76-9.64c0,0,2.09-4.12,2.27-4.76,0,0,.83-1.9,1.87-2.12l26.32-2.18,33.59-1.93v.25l-15.49,5.15-21.2,6.87-28.26,8.29h42.92a64.72,64.72,0,0,1,6.44-2.25l5-1.54-.53-.71.75,0,.43.5,34.26-12.3,3.47-18.85Zm-39.84,28.61h-.5l-.21-.26-1.27,0-.3.29h-.34l-.24-.29h-8.29v-.28h10.41l.74.28Zm8.3.86h-.86v-.29h.86Zm2.86,0h-1.71v-.29h1.71Zm2.29,0h-.45l-.19-.29h.64Z" style="fill:#fff000"/><path id="P_bottom" d="M632.93,306.43l-1.48.57v-.57h-2l-5.18,6h-16l-15.56,5.65.11,1.22h-.21l-.47-.89-1.75.39,0,.5c.36.93,8.7,6.83,8.7,6.83l.42-.86,3.94.07-.79.79-1.79,0v.75l.49.5,0,1.86-1.11,0-.79,1.43c.29-.28,1.94-.21,1.94-.21v1.36l-.52,0-1.67-.61c-.74,1.14-3.67,8.18-7.45,16.38-.29.65-1.23,2.16-1.53,2.82-.21.45-.12,1.18-.34,1.62-3.6,7.14-6.59,13.27-6.59,13.27L571.9,389.58l-9.69,20.1a1.82,1.82,0,0,0,1.14-.47c1-1.68,3.76-2.75,3.76-2.75a4.38,4.38,0,0,0,2.14-2.47l5.9-12.59a13.51,13.51,0,0,1,2.79-4h.68a4.65,4.65,0,0,1,2.58-1.89l1-.18c1-1.47,5.19-4.54,5.19-4.54l8.62-5.62a3.56,3.56,0,0,0,.82-.93l6-12.37,13.45-27.15c1.57-3.29,5.25-10,5.25-10l20.2-6.58.43-.47.19.24,16.45-5.13a133.73,133.73,0,0,0,17.88-6.29Zm-37.51,53.5h-.31v-.29h.31Zm8-.29h-.31v-.28h.31Zm33.43-47.78h-.55v-.29h.55Zm9.16,2.58.59-1.33V313h1.88l.46.77.81.66Z" style="fill:#fff000"/><polygon id="U_top" points="689.34 304.49 697.54 300.37 697.54 301.27 697.97 301.56 703.24 299.87 702.93 305.85 688.67 305.85 689.34 304.49" style="fill:#fff000"/><path id="U_bottom" d="M753,274.74c0-1.75,2-3.33,2-3.33l-.93-2.07,1.79-5.26v-1.72l-.9.68-1.68.47h-.54l-2.71,4.5L737.2,288.47l-11.51,18.31-1.76,1.61-6.11,3.69L706.37,320l-11.12,7.33h-.57v-.82l1.4-1.2.14-.79-.42-.41L703,306.43h-14.6l-5.3,12.23,3.73.1-.68,1-1.25-.18-2.12-.2L676.65,335v.85l3.11,2.62a88.29,88.29,0,0,0,7.59,5.47c1.5-.65,7.11-5.47,7.11-5.47.72-.43,6.94-4.26,6.94-4.26l11.05-7.8c2.4-1.86,3.11-1.68,3.11-1.68-.39,1.25-5.93,12.3-5.93,12.3.21.65,1.46.79,1.46.79,1.76.14,5.12,2.83,5.12,2.83,6.44,4.29,6.44,3.47,6.44,3.47l11.44-21.39L723,322.7l-.32-.54h5l.43.23h1.36l.32-.22h3.75l.18.23.54.09,2.32-4.57-11.12-.11.72-.47.57,0,.18.28h1.39l.4-.25.53-.07.32.36,4.23,0,.64-.35,2.57-.15,9.37-16.88a74.7,74.7,0,0,0,3.79-7.29,5.8,5.8,0,0,1,1.9-2.08c0-.64,4.44-8.37,4.44-8.37C755.44,281.28,753,274.74,753,274.74Zm-56.65,36.55H697l0,.28h.56l.3.29h-1.44Zm-6.58,0H691l.3.25-1.45,0Zm2.87,8h-2l-.32-.3h-1.67l0-.29-1.14,0,0-.28.26-.28,0-.87-.78-.06.23-.22h3.15v.29l-.27.57h1.12l.62.86h.82Zm.57,4.28H693v-.27h.29Zm-.57-12v-.28h2.83l-.28.3-.31,0,0,.29h-.28v-.29Zm11.73,12-.35.28h-.23v-.56h.58Zm3.43-.07-.23.07-.06-.28h.29Zm7.8.35-.08-.56h.29Zm2.79.87h.28v.5h-.28Zm0,2.28h.25l0,.29.22.52-.22.63h-.28Zm0,2.58H719l-.29.29h-.28Zm3.71,2.86H721l-.25.59.77.86.11.27h-1.2l-.29.28h-.86l-.29.25-.85-.64v-1.32l.29,0,0-1.68.58.48,2.84.14.31.2Zm2.58,3.72h-.57v-.29h.57Zm-.57-6.29h-4.58l-.29-.29v-.29h6Zm-4-2.29h1.93l.13.53-.34.33h-1.11Zm9.64-.6-.46-.26h-.88l-.13.26-.17-.3-8.28.06v-.6l10.3.1Zm2.09-2.55-.55.79-4.31.1-.36-.32h-.5l-.27.29h-.59L725,325h-.25l-.14.32-2.72,0-.23-.39.23-.45Z" style="fill:#fff000"/><path id="N_bottom_1" d="M767.12,274.68s-5.79,10.07-7.86,14.65c0,0-5.06,9.87-6.63,11.94l-8.72,15.88,2-.23.28.38h1.18V317l.32,0,.29.32h3.68l.29-.32,1.39.07.36.25h8l5.36-9.09,2.22,9.37h1l.43-.32,3.47.07.46.25h21.11L804.79,301l-1.89,0-3.15.57-11.73,0L781.41,313s-5.26-23.36-9-33.12l-4.75-.07a2.51,2.51,0,0,0-.9-2.29l0-.5,1.14-1.86.11-1Z" style="fill:#fff000"/><path id="N_top" d="M811.66,278.39l-4.54.28h-5.76c-3.54,4.58-12.89,22.1-12.89,22.1l1.95-.14.39.36h4.47l.29-.22.39.22h.86l4-.22,4.32-.42,12-22Zm-16.84,21.45h-3.15v-.28h3.15Z" style="fill:#fff000"/><path id="N_bottom_3" d="M743.54,317.87s-6.49,12-8.62,16.88h.67l.34-.29h2.24a124.09,124.09,0,0,1,14.33-2l.54-.29,4.89-8.89-6.27-.29-.59-.5,7.48-.05,2.48-4.24-12.85-.11-.07-.2Z" style="fill:#fff000"/><path id="N_bottom_2" d="M789.59,328.71s4.94-9.12,5.51-10.27h-14l-2.05,0-.43-.25h-1.24l0,.28h-.33v-.28h-.86l-.36.28-1.38,0-.26-.26h-1.43l-.22.26-.4-.26-2.83,0L773.61,335l12.6-.27,2.79-5.18-2.72-.05.17-.24A17.67,17.67,0,0,1,789.59,328.71Zm-4.36.89-.14-.29h.29Z" style="fill:#fff000"/><path id="K_top" d="M933.4,246.52,914.88,256l-15.42,7.3-16.84,8.12L836.47,294l-.41,0,12-22.46-16,.72-1.31-.25-1.08-1.73-.41-.17-10.67,19.77-5.45,10.5h1.62l.4.28,2.27,0,.31-.24h.9l.31.28,1.31,0,0-.24h.64l.22.25,7.37.06,2,1.43.09.55,1.29,0,1.29.83.9,0,2.12,1.45,1,1,1.13.09,2,1.12,0,.86h-.62l-.36-.27-6.13-3.38-.76-.14-.64-.45-.55-.07-.07-.22-.74-.05-.12-.21-.6-.6-.57-.07-.86-.83h-.55l-.35-.28h-1.65l-.31.27h-2.26l-.31-.29h-.53l-.33.3-2-.06-.43-.24-7.32.05-7.46,14v.24l.86,1.76h12.13l.46-.28H819l.38.28h4l2.62-4.86c1.12-1.88,2.74-4.29,2.74-4.29l8,4.29c4.32,2.31,8.87,5.17,8.87,5.17l.48-.33.74,0-.22-1.1,1.1,1.14h11l.27.29.76-.05.24-.21.38,0,.26.24,3.46.07.67.5.74-.52h1.4l.27-.29,1.16,0,.31.26h2.63l0-.25c-1.05.05.71-1.44.71-1.44,1.46-.91,3-1.72,3-1.72l0-.26-4.79-3.15-7.4-4.34-4.53-2.79-4.74-2.65h-2l0-.57h.93l-.6-.89,22.65-11.89,18.29-9.53a9.78,9.78,0,0,0,1.29-1,16.46,16.46,0,0,1,3-2.5l4.22-2,17.22-8.53a8.31,8.31,0,0,0,3.11-2.63l3.47-5.4a12.86,12.86,0,0,1,5.88-5.22l3.06-4.19C934.28,246,933.4,246.52,933.4,246.52Zm-97.1,53.32H834v-.28h2.58Zm5.44,7.16v.28h-.29l0-.28h-.26v-.29H842l.29.29Zm14.59-.29h.57V307h-.57Zm0,1.15h.57v-.58h.29l.3.58h.56v.57h-2ZM854.9,307h.23v.28h-.23Z" style="fill:#fff000"/><path id="K_bottom_1" d="M823.14,317.87h-3.61l-.39.29H806c1.32,2.73,1.12,4,1.12,4l.45.29.41-.32,0,.62L802.77,333l-.51.63v.5l8.58,6.36h.27c.32-1.14,3.45-6.82,3.45-6.82l5-8.79-.66.45h-7.72l-.06-.23,7.49-.34h1.06l1-1.72h-9.11l-.05-.57h9.41ZM812.27,329l0-.29-1.2,0,0,.26-.54.08-.36.55h-3.68l.56-.54,0-1.12-.28-.2.81-.12.27.21.88.07.35-.3h1.1l.28.28h.58v.58h1.43v.28h.57l.28.29Zm-.57-2.58.28-.28h.58v.28l1.43,0,.33-.24h2.24v.57l-.32.27-8.19-.06,1.1-.5Z" style="fill:#fff000"/><path id="K_bottom_2" d="M960.05,373.11l-3-1.79c-.93-.5-6.92-3.91-6.92-3.91l-.55,0-2.29.84h-1.43l-8.32-4.79-.36.16-1.33,0v.28h-.5l-.41-.21-1.05-.14.48-1.29.57-.22-17.78-9.8-.48.22V352l-19.91-10.85L892.92,339l-11.69-6.53-.26-.65-1.46-7.4H871.8l0,.26-1.16,0-.31.27h-.57l-.36-.25-1.36-.08-.57-.53h2.32l0-.85H858.62l-.29-.29h4.59l1.14-1.43h13.68L873.5,319h-6.87v-.28h-10l-.06-.34-1.1.05v.29h-.2l-.06-.23h-8.27l4.13,2.23a5.53,5.53,0,0,0,2.4,2.58l72.19,38.6,1.63,0v.22l-.53.23,1.69,1,.22,0,.05-1.12-.53-.07.24-.26,1.15,0,.3.24.79.07-.52.86,0,.48-.26,0v-.29H929l0,.26,21.46,11.47H951l.31-.28h8.54l.31-.78Zm-29-12.4h-.48l-.1-.21H931Zm.28,1.22h.57v.33l-.57-.16Zm1.15,1.43h-.39l-.19.29h-.28v-.29l.28-.29h.58Z" style="fill:#fff000"/><path id="K_bottom_3" d="M951.89,375.38h8.59a8.8,8.8,0,0,0,1.71,1.43v.28l-.28.51,0,.9.26,1.1v.64l1.34,1.15h-.48l-11.16-5.82Z" style="fill:#fff000"/></g></g></g></g></svg>