<svg id="Layer_1" data-name="Layer 1" xmlns="http://www.w3.org/2000/svg" width="1098.67" height="618" viewBox="0 0 1098.67 618"><title>Cyberpunk2077</title><g id="Cyberpunk2077"><rect id="Border" width="1098.67" height="618" style="fill:none"/><g id="_2077" data-name="2077"><polygon points="620.86 380.26 621.09 379.96 621.43 379.96 621.43 380.26 621.43 380.47 621.15 380.3 620.86 380.26" style="fill:#52bedc"/><polygon points="622.58 379.96 622.86 379.96 623.13 380.21 622.86 380.47 622.58 380.47 622.58 379.96" style="fill:#52bedc"/><polygon points="626.01 379.96 626.01 380.53 626.55 380.53 626.55 380.24 626.28 379.96 626.01 379.96" style="fill:#52bedc"/><polygon points="626.01 377.38 626.01 376.52 625.73 376.31 625.73 375.95 626.01 375.95 626.01 376.24 626.3 376.67 626.3 377.38 626.01 377.38" style="fill:#52bedc"/><polygon points="635.74 375.95 636.02 375.95 636.02 376.49 635.74 376.56 635.74 375.95" style="fill:#52bedc"/><polygon points="626.27 380.76 626.65 381.39 626.87 381.39 626.87 380.81 626.27 380.76" style="fill:#52bedc"/><polygon points="627.44 379.96 628.01 379.96 628.01 380.53 627.73 380.53 627.44 380.24 627.44 379.96" style="fill:#52bedc"/><polygon points="635.17 380.24 635.47 379.96 635.74 379.96 635.45 380.47 635.36 380.76 635.17 380.83 635.17 380.24" style="fill:#52bedc"/><polygon points="635.45 378.52 635.45 378.24 635.74 377.94 636.02 378.15 636.02 378.52 635.45 378.52" style="fill:#52bedc"/><rect x="645.47" y="376.24" width="0.29" height="0.32" style="fill:#52bedc"/><polygon points="646.33 375.95 646.9 375.95 647.16 376.25 646.86 376.83 646.84 377.09 646.33 377.09 646.33 375.95" style="fill:#52bedc"/><polygon points="643.18 380.53 643.18 380.24 643.32 379.96 643.43 380.24 643.43 380.53 643.18 380.53" style="fill:#52bedc"/><polygon points="644.32 380.53 644.32 380.24 644.55 379.96 644.82 380.24 644.57 380.53 644.32 380.53" style="fill:#52bedc"/><rect x="644.89" y="380.81" width="0.29" height="0.26" style="fill:#52bedc"/><polygon points="646.09 381.07 646.33 381.39 646.61 381.58 646.61 381.07 646.09 381.07" style="fill:#52bedc"/><polygon points="648.04 380.24 648.33 380.24 648.61 380.53 648.61 380.81 648.33 381.07 648.04 380.83 648.04 380.24" style="fill:#52bedc"/><polygon points="649.47 380.24 649.76 380.24 649.94 379.96 650.31 380.24 650.62 380.24 651.08 379.96 651.76 379.96 652.05 380.24 652.05 380.53 651.76 380.81 651.48 380.81 651.44 380.53 650.62 380.53 649.96 381.33 649.79 380.81 649.47 380.81 649.47 380.24" style="fill:#52bedc"/><polygon points="653.21 380.24 653.34 379.96 653.46 380.24 653.46 380.53 653.21 380.53 653.21 380.24" style="fill:#52bedc"/><polygon points="656.34 375.95 657.2 375.95 657.48 376.22 657.22 376.52 656.91 376.52 656.91 376.81 656.68 377.09 656.34 377.09 656.34 376.52 656.55 376.4 656.34 376.15 656.34 375.95" style="fill:#52bedc"/><polygon points="652.12 376.52 652.32 376.24 652.6 376.56 652.36 376.77 652.12 376.52" style="fill:#52bedc"/><polygon points="655.48 376.52 655.48 376.24 655.8 376.24 656.02 376.77 655.48 376.77 655.48 376.52" style="fill:#52bedc"/><polygon points="658.09 377.09 658.36 377.65 658.61 377.65 658.61 377.09 658.09 377.09" style="fill:#52bedc"/><polygon points="658.91 377.38 659.2 377.38 659.49 377.09 659.77 377.09 659.77 377.38 659.77 377.67 658.91 377.67 658.91 377.38" style="fill:#52bedc"/><polygon points="657.48 378.24 657.48 378.52 658 378.52 657.84 378.24 657.48 378.24" style="fill:#52bedc"/><polygon points="658.63 377.95 659.2 377.95 659.77 378.24 660.02 378.52 658.91 378.52 658.61 378.24 658.63 377.95" style="fill:#52bedc"/><polygon points="662.64 380.19 662.99 379.93 663.21 380.24 663.21 380.53 662.92 380.53 662.37 380.78 662.64 380.19" style="fill:#52bedc"/><polygon points="656.34 380.24 656.91 380.24 656.91 380.78 656.63 380.53 656.34 380.53 656.34 380.24" style="fill:#52bedc"/><polygon points="657.77 380.24 658.34 380.24 658.63 380.78 658.63 381.1 658.35 381.07 658.2 380.53 657.77 380.53 657.77 380.24" style="fill:#52bedc"/><polygon points="665.05 379.96 664.92 380.24 664.92 380.53 665.23 380.53 665.05 379.96" style="fill:#52bedc"/><path id="n2" d="M3032.78,603.23h-8.88l-8.86,8.89-2.86,0v-.23l-.28,0-.29.27h-2.31l-.12-.28-.11.31-.89,0v-.3l-.29.3h-.32l-.25-.29v.29h-.82l.25-.29v-.27h.28V611h-.53l-.33.57v.6l-.28,0v-.23l-.23.26-.92,0v-.25l-.28.25h-5l.12-.29v-.57l-.28.29v.25l-.27.31-17.76,0v0l-.28,0v.55l-8.57,0,0,.27-.25,0v-.31l-.81,0,.77-.25.06-.27.84,0v-.29l-.29-.23.23-.34,3.44-4.27.05-.59.52,0,3.45-4.56a10.37,10.37,0,0,0,.89-3.49s.38-4.88-4-6.83a8.86,8.86,0,0,0-3.86-.88s-2.44-.21-5,2.61l-.25.27.25.27-.06.28-.8.33a5,5,0,0,0-.86,2.27v1.45l3.68,0s.41-3.74,4.13-3.48c0,0,2.82.13,3.07,3.74a3.48,3.48,0,0,1-.86,1.91l-6.37,8.06h.64v.29h-.84l-3.15,3.77v.23h.86l0,.29h-.25v.28H2967l-.29-.25v3.69h14.59V613l2.44,0,.13-.14h.87l.14.16.14-.18,14.29.05.15-.15.17.15,1.4,0,.18-.17.16.11,10.56.06.27-.06,2.88.06.31-.13,2.23-2.25.29-.06,0-.21,2-2,.28,0v-.25l4-4,.23-.06,0,.58.3,0,0-.6,7.94,0,.07.88.25.55v-3Z" transform="translate(-2330.67 -231)" style="fill:#52bedc"/><polygon points="668.64 376.52 668.64 376.24 668.94 376.38 669.21 376.52 669.21 376.81 668.93 377.08 668.64 376.93 668.64 376.52" style="fill:#52bedc"/><polygon points="672.08 380.4 672.36 380.24 672.66 380.07 673.49 379.96 673.79 379.96 674.07 380.24 673.77 380.53 672.65 380.53 672.34 380.82 672.08 380.63 672.08 380.4" style="fill:#52bedc"/><polygon points="678.04 380.37 678.35 379.96 678.94 379.96 679.66 380.24 680.66 380.24 680.94 379.96 681.23 379.96 681.52 380.23 681.52 380.53 678.08 380.53 678.04 380.37" style="fill:#52bedc"/><polygon points="659.78 381.1 660.04 380.53 660.34 380.67 660.34 381.1 659.78 381.1" style="fill:#52bedc"/><polygon points="682.94 380.39 683.1 380.24 683.22 380.39 683.08 380.53 682.94 380.39" style="fill:#52bedc"/><polygon points="686.95 379.96 687.81 379.96 688.1 380.13 688.1 380.24 687.85 380.53 687.24 380.53 686.95 380.24 686.95 379.96" style="fill:#52bedc"/><polygon points="694.41 373.39 694.11 373.71 694.11 373.95 694.41 374.25 694.68 374 694.68 373.66 694.41 373.39" style="fill:#52bedc"/><polygon points="691.03 376.56 690.67 376.82 690.67 376.98 691 377.38 691.24 377.38 691.18 376.8 691.03 376.56" style="fill:#52bedc"/><polygon points="692.96 376.24 693.25 376.24 693.29 375.95 694.68 375.95 694.96 376.24 694.68 376.51 694.55 376.78 694.68 377.08 694.68 377.38 694.39 377.33 694.34 377.11 694.02 376.81 693.27 376.77 693.16 376.51 692.96 376.5 692.96 376.24" style="fill:#52bedc"/><polygon points="694.83 377.79 694.68 377.95 694.68 378.2 694.83 378.52 694.96 378.27 694.96 377.95 694.83 377.79" style="fill:#52bedc"/><polygon points="695.93 376.8 695.83 377.08 695.93 377.38 696.1 377.13 695.93 376.8" style="fill:#52bedc"/><polygon points="696.67 376.92 696.97 376.52 697.25 376.52 697.25 376.8 697.29 377.09 697.54 377.09 697.82 376.88 698.08 376.81 698.97 376.81 699.51 377.03 699.27 377.38 698.97 377.38 698.7 377.09 698.26 377.22 698.12 377.38 696.68 377.38 696.68 377.09 696.97 377.09 696.67 376.92" style="fill:#52bedc"/><polygon points="699.83 377.84 699.97 377.7 700.1 377.79 699.96 378.2 699.83 377.84" style="fill:#52bedc"/><polygon points="700.73 377.77 701.01 377.37 701.09 377.13 701.25 377.38 701.54 377.7 701.54 377.95 701.28 378.2 700.99 377.95 700.73 377.77" style="fill:#52bedc"/><polygon points="701.38 378.52 701.24 378.81 701.38 379.06 701.54 378.82 701.38 378.52" style="fill:#52bedc"/><polygon points="696.11 379.58 696.34 379.39 696.77 379.07 697.34 379.39 698.09 379.38 698.64 379.38 700.38 379.12 700.68 379.39 700.97 379.38 700.97 379.67 700.97 379.67 699.6 379.83 699.56 379.51 699.26 379.44 699.02 379.51 698.95 379.71 698.91 379.96 697.83 379.96 697.54 379.96 696.68 379.96 696.36 379.67 696.11 379.58" style="fill:#52bedc"/><polygon points="706.06 376.76 706.36 377.07 706.67 377.19 706.96 377.09 707.25 376.81 707.84 376.81 708.07 377.11 708.41 377.09 708.41 376.81 708.66 376.55 708.98 377.03 708.98 377.09 708.7 377.36 708.68 377.54 708.96 377.8 708.98 378.1 708.86 378.21 708.52 377.92 708.4 377.96 708.14 377.95 708.13 377.67 708.42 377.52 708.4 377.38 707.55 377.38 707.27 377.38 707.08 377.25 706.93 377.32 706.96 377.38 706.98 377.68 706.69 377.96 706.53 377.96 706.4 377.67 706.42 377.38 705.84 377.38 706.06 376.76" style="fill:#52bedc"/><polygon points="708.7 374.81 709.27 374.81 709.24 375.39 708.98 375.1 708.7 374.94 708.7 374.81" style="fill:#52bedc"/><polygon points="710.7 373.95 710.99 373.95 710.99 374.51 710.84 374.51 710.7 374.23 710.7 373.95" style="fill:#52bedc"/><polygon points="710.7 373.09 710.84 372.81 710.99 373.1 710.99 373.38 710.7 373.38 710.7 373.09" style="fill:#52bedc"/><polygon points="709.84 377.38 709.84 377.67 710.12 377.94 710.31 378.25 710.4 377.96 710.7 377.82 710.43 377.65 710.39 377.38 709.84 377.38" style="fill:#52bedc"/><polygon points="711.25 377.09 711.4 376.83 711.55 377.09 711.55 377.38 711.28 377.38 711.25 377.09" style="fill:#52bedc"/><polygon points="712.42 377.1 712.55 376.83 712.7 377.08 712.7 377.36 712.42 377.36 712.42 377.1" style="fill:#52bedc"/><polygon points="706.69 378.24 707.27 378.24 707.41 377.97 707.55 378.24 708.13 378.24 708.13 378.52 706.69 378.52 706.69 378.24" style="fill:#52bedc"/><path id="n0" d="M3040.37,590.64c-4,0-7.3,3-7.3,6.75V610a6.24,6.24,0,0,0,.9,3.22h.82l.26.29h-.9a5.73,5.73,0,0,0,.47.63l.4,0,.08.24.56-.28h.27l.16.27.23-.27.15,0,.18.09.52-.09-.09.22v.31l-.1.54-.2-.24h-.57l-.25.22v.19a7.69,7.69,0,0,0,4.42,1.39c4,0,7.29-3,7.29-6.75V597.39C3047.66,593.67,3044.33,590.64,3040.37,590.64Zm3.29,12.89v6.1a3.17,3.17,0,0,1-.67,1.92l.09.55h-.63a3.52,3.52,0,0,1-2.23.79,3.46,3.46,0,0,1-1.37-.28l-.34.32-.81.45,0,.44h-.28l0-.79.52-.07v-.29h.24l.28-.26a3.22,3.22,0,0,1-1.66-2.78V597.81a3.44,3.44,0,0,1,6.87,0Z" transform="translate(-2330.67 -231)" style="fill:#52bedc"/><g id="endpoint_1"><path d="M3047.09,602.94h1.43l.59.13,10,0,.41-.18.41.09,11.07.09.41-.18s5.43-.05,5.43,0,.16.26.16.26l.12-.28.49.06,0,.59-.06.23h-21.36l-.31.56-.29.59h-.25l-.29-.2.29-.36,0-.41-.32-.31-3.37,0-.3.15h-3.11l-.15-.07-.16.07h-.86Z" transform="translate(-2330.67 -231)" style="fill:#52bedc"/><path d="M3080.4,606.59a3.15,3.15,0,1,1,3.15-3.15A3.15,3.15,0,0,1,3080.4,606.59Zm0-5.44a2.3,2.3,0,1,0,2.29,2.29A2.3,2.3,0,0,0,3080.4,601.15Z" transform="translate(-2330.67 -231)" style="fill:#52bedc"/></g><polygon points="752.47 372.8 753.33 372.8 754.85 372.8 757.06 372.84 756.77 373.11 755.92 373.28 753.04 373.38 752.32 373.38 752.42 373.03 752.47 372.8" style="fill:#52bedc"/><polygon points="759.05 372.23 755.05 372.23 754.17 372.11 754.88 371.77 759.05 371.73 759.05 372.23" style="fill:#52bedc"/><polygon points="759.34 372.44 759.91 371.94 760.77 371.94 761.04 371.73 761.34 372.09 761.34 372.23 760.8 372.52 759.63 372.52 759.34 372.44" style="fill:#52bedc"/><polygon points="762.78 372.54 763.06 371.97 763.48 371.68 763.92 371.98 763.92 372.23 763.35 372.8 763.25 373.09 763.06 372.8 762.77 372.8 762.78 372.54" style="fill:#52bedc"/><polygon points="765.03 372.19 765.66 371.66 766.21 371.66 766.48 371.94 768.16 371.94 768.43 371.68 768.82 371.94 769.05 371.95 769.31 372.04 768.83 372.52 767.06 372.52 766.78 372.52 766.49 372.52 766.2 372.52 765.35 372.52 765.03 372.19" style="fill:#52bedc"/><polygon points="765.35 375.31 765.81 374.85 766.76 374.95 767.06 375.3 766.76 375.66 766.21 375.95 765.92 375.95 765.6 375.68 765.35 375.65 765.35 375.31" style="fill:#52bedc"/><polygon points="764.16 376.34 764.61 375.95 765.35 375.95 765.65 376.25 767.02 376.23 767.31 375.95 768.49 375.95 769.07 376.27 769.07 376.52 767.64 376.52 767.52 376.3 767.36 376.52 765.92 376.52 765.62 376.81 764.77 376.81 764.55 376.52 764.2 376.52 764.16 376.34" style="fill:#52bedc"/><polygon points="769.48 375.4 769.37 375.67 769.53 375.95 769.63 375.67 769.48 375.4" style="fill:#52bedc"/><polygon points="770.68 375.38 770.51 375.66 770.76 375.95 771.08 375.95 771.34 375.66 771.05 375.38 770.68 375.38" style="fill:#52bedc"/><polygon points="755.91 376.57 755.33 376.9 755.33 377.38 755.91 377.38 756.15 377.12 756.19 376.67 755.91 376.57" style="fill:#52bedc"/><rect x="751.04" y="377.09" width="0.29" height="0.29" style="fill:#52bedc"/><polygon points="746.18 377.28 746.72 376.63 747 376.62 747.57 377.09 748.75 377.09 749.15 376.63 749.5 377.09 749.9 377.09 749.9 377.38 749.61 377.38 748.03 377.35 747.8 377.38 747.32 377.38 747.04 377.38 746.18 377.43 746.18 377.28" style="fill:#52bedc"/><rect x="745.61" y="374.23" width="0.29" height="0.26" style="fill:#52bedc"/><polygon points="745.03 380.07 745.52 379.67 747.32 379.67 747.82 379.96 749.33 379.96 749.61 380.14 749.32 380.24 746.46 380.2 746.25 379.96 745.9 380.2 745.03 380.24 745.03 380.07" style="fill:#52bedc"/><polygon points="743.61 378.01 743.89 377.38 743.89 377.09 744.28 376.57 744.64 377.02 744.36 377.24 744.17 377.47 744.13 377.94 743.61 378.01" style="fill:#52bedc"/><polygon points="740.19 377.41 740.78 377.09 741.6 377.09 741.6 376.81 741.82 376.57 742.14 376.95 741.91 377.41 740.75 377.43 740.39 377.68 740.19 377.41" style="fill:#52bedc"/><polygon points="738.45 378.11 738.68 378.01 739.01 378.06 738.8 378.22 738.45 378.11" style="fill:#52bedc"/><polygon points="736.14 378.1 736.71 377.58 736.76 377.12 737.04 376.86 737.31 377.34 737.31 377.67 736.72 377.96 736.5 378.22 736.14 378.1" style="fill:#52bedc"/><polygon points="731.88 380.11 732.77 379.67 733.88 379.67 736.45 379.67 737.31 379.67 737.89 379.76 737.31 380.24 732.44 380.24 731.88 380.11" style="fill:#52bedc"/><polygon points="730.48 377.35 730.98 376.85 731.3 377.11 731.3 377.38 730.73 377.68 730.48 377.35" style="fill:#52bedc"/><polygon points="733.05 377.12 733.27 376.86 733.63 377.12 733.34 377.33 733.05 377.12" style="fill:#52bedc"/><polygon points="727.87 378.13 728.29 377.13 728.45 377.68 728.73 378.01 728.73 378.24 728.44 378.24 727.87 378.13" style="fill:#52bedc"/><polygon points="725.86 377.09 726.44 377.09 727.02 377.69 726.72 377.95 726.44 377.95 726.44 377.7 726.21 377.38 725.86 377.38 725.86 377.09" style="fill:#52bedc"/><polygon points="724.72 377.1 725.29 377.13 724.86 377.68 724.72 377.45 724.72 377.1" style="fill:#52bedc"/><polygon points="724.45 378.12 724.72 377.95 725.01 378.01 725.01 378.24 724.67 378.24 724.45 378.12" style="fill:#52bedc"/><polygon points="725.58 375.28 725.8 375.13 726.15 375.2 725.98 375.34 725.58 375.28" style="fill:#52bedc"/><polygon points="726.15 374.23 726.29 373.97 726.71 373.97 726.71 374.23 726.57 374.51 726.4 374.24 726.15 374.23" style="fill:#52bedc"/><polygon points="727.88 374.82 728.15 375.13 728.15 375.38 727.01 375.38 726.72 375.11 726.72 374.81 727.02 374.28 727.26 374.24 727.71 373.97 728.09 374.41 727.75 374.51 727.44 374.36 727.33 374.51 727.02 374.83 727.88 374.82" style="fill:#52bedc"/><polygon points="717.49 377.1 717.82 377.08 718.27 376.84 718.52 377.07 719.43 376.81 719.86 376.81 720.38 377.33 720.14 377.68 720.12 378.17 720.02 378.24 719.85 377.95 719.86 377.68 719.55 377.38 718.71 377.38 718.41 377.77 718.37 377.95 718.14 378.24 717.85 378.24 717.83 377.95 717.57 377.68 717.49 377.1" style="fill:#52bedc"/><polygon points="720.99 378.1 721.26 377.95 721.57 378.1 721.28 378.27 720.99 378.1" style="fill:#52bedc"/><polygon points="721.28 377.13 721.41 376.83 721.57 377.1 721.42 377.39 721.28 377.13" style="fill:#52bedc"/><polygon points="723.85 373.38 724 373.11 724.13 373.38 723.99 373.65 723.85 373.38" style="fill:#52bedc"/><polygon points="720.13 373.38 720.42 373.11 720.72 373.38 720.47 373.65 720.13 373.38" style="fill:#52bedc"/><path id="n71" d="M3105.81,590.64l-.09.41-.34.18-.23-.17-1.39-.14-.43-.28h-4.45v7.73l4,0,0-3.74h3.9l.46-.29h.22l.14.29h1.48l-4.33,11.09.1.3-.32.26-.17.43.22.07-.31.17-3.68,9.42h.78l.13-.25h.53l.22.26h2.9l8.6-21.74v-4Zm2.11,2.31-.12-.09.09-.14.16.14Z" transform="translate(-2330.67 -231)" style="fill:#52bedc"/><path id="n72" d="M3165,590.64v5.17l.35.11-.35.25v2.2h2l.18-.34.18.34H3169l0-3.74h6.2l-6.57,16.82.37.06-.57.47-1.72,4.39h2.25l.19-.27.14.27h2l4.07-10.3h-.62v-.28l.68-.27.14.05,4.33-10.94v-4Zm7.44,17.15h-.31l-.25-.11.25-.4.31.12Z" transform="translate(-2330.67 -231)" style="fill:#52bedc"/><polygon points="788.8 371.01 789.11 370.8 789.67 370.8 789.67 371.09 789.09 371.09 788.8 371.01" style="fill:#52bedc"/><polygon points="791.95 370.94 792.25 370.8 792.54 370.8 792.8 370.94 792.54 371.09 792.24 371.09 791.95 370.94" style="fill:#52bedc"/><polygon points="795.67 370.8 795.67 371.09 806.83 371.09 807.37 371.36 807.72 371.09 810.55 371.09 810.98 371.37 811.41 371.09 811.7 371.09 812.16 371.37 812.59 371.09 812.84 371.09 813.13 370.95 812.83 370.8 795.67 370.8" style="fill:#52bedc"/><polygon points="813.69 371.08 813.96 370.8 814.28 371.08 813.99 371.37 813.69 371.08" style="fill:#52bedc"/><polygon points="777.65 376.24 778.79 376.24 779.08 376.24 779.37 376.47 779.04 376.81 778.79 376.81 778.4 376.52 777.94 376.52 777.65 376.24" style="fill:#52bedc"/><polygon points="783.13 376.52 783.4 376.24 783.94 376.24 784.23 376.52 783.9 376.81 783.37 376.81 783.13 376.52" style="fill:#52bedc"/><polygon points="786.8 376.52 787.07 376.24 787.39 376.52 787.09 376.81 786.81 376.81 786.8 376.52" style="fill:#52bedc"/><polygon points="790.81 376.24 792.24 376.24 792.19 376.81 791.67 376.81 790.81 376.7 790.81 376.24" style="fill:#52bedc"/><polygon points="793.38 376.67 793.66 376.52 793.96 376.52 793.96 376.81 793.67 376.81 793.38 376.67" style="fill:#52bedc"/><polygon points="794.21 376.52 794.54 376.24 794.82 376.24 795.14 376.52 794.67 376.81 794.21 376.52" style="fill:#52bedc"/><rect x="795.39" y="376.52" width="0.29" height="0.29" style="fill:#52bedc"/><polygon points="796.53 376.52 796.82 376.52 797.11 376.67 796.82 376.81 796.53 376.81 796.53 376.52" style="fill:#52bedc"/><polygon points="797.66 376.52 798 376.24 798.54 376.24 798.83 376.52 801.11 376.52 801.42 376.24 801.68 376.24 801.96 376.52 804.54 376.52 804.81 376.24 805.12 376.24 805.47 376.52 809.41 376.52 809.71 376.67 809.43 376.81 809.12 376.81 808.81 377.07 808.23 376.81 800.83 376.81 800.53 377.07 800.24 376.94 800.21 376.81 798.54 376.81 797.96 376.81 797.66 376.52" style="fill:#52bedc"/><polygon points="779.91 376.52 780.24 376.24 780.52 376.52 780.22 376.81 779.91 376.52" style="fill:#52bedc"/><polygon points="810.84 376.52 812.27 376.52 812.41 376.81 812.53 376.52 812.84 376.52 813.09 376.67 813.4 376.52 815.7 376.52 816.63 376.67 817.41 376.65 817.69 376.52 819.42 376.52 819.93 376.81 820.85 376.81 821.13 376.52 822.86 376.52 823.2 376.81 824.86 376.73 824.86 376.52 825.72 376.52 826.19 376.71 827.8 376.67 828.04 376.52 828.58 376.52 828.92 376.67 829.4 376.92 829.13 377.09 828.79 377.38 828.32 377.05 827.15 377.09 826.88 377.38 826.55 377.06 822.91 377.08 822.26 377.38 821.71 377.38 821.4 377.11 820.61 377.09 820.44 377.38 820.23 377.09 820.01 377.07 819.42 376.73 819.42 377.09 818.86 377.11 818.74 376.82 818.56 377.11 818.29 377.13 818.13 376.81 817.75 376.8 817.43 377.09 814.84 377.06 814.53 376.81 813.99 376.81 813.84 377.09 813.13 377.09 812.87 376.8 812.56 376.95 812.51 377.12 812 377.07 811.64 376.81 810.84 376.8 810.84 376.52" style="fill:#52bedc"/><polygon points="830.29 375.96 830.54 375.71 830.88 375.96 830.59 376.19 830.29 375.96" style="fill:#52bedc"/><polygon points="832.86 377.11 833.29 376.52 833.6 376.81 834.06 377.11 833.72 377.38 833.16 377.38 832.86 377.11" style="fill:#52bedc"/><polygon points="833.46 376 833.73 375.71 834.06 376 833.76 376.28 833.46 376" style="fill:#52bedc"/><path d="M3165,607.84l.56-.32h.3l.83.16.31.28-.26.13h-.31l-.38.29-.55-.32-.5,0Z" transform="translate(-2330.67 -231)" style="fill:#52bedc"/><polygon points="836.3 375.95 836.77 375.71 837.18 375.95 836.8 376.19 836.3 375.95" style="fill:#52bedc"/><polygon points="836.62 377.11 837.47 376.85 837.75 376.52 838.88 376.52 839.09 376.79 839.46 376.95 839.31 377.27 839.01 377.38 836.59 377.38 836.62 377.11" style="fill:#52bedc"/><rect x="829.44" y="380.24" width="0.86" height="0.29" style="fill:#52bedc"/><polygon points="829.19 381.86 829.4 381.71 829.65 381.79 829.52 381.97 829.19 381.86" style="fill:#52bedc"/><rect x="830.01" y="381.67" width="0.29" height="0.3" style="fill:#52bedc"/><polygon points="830.88 381.71 831.14 381.41 831.43 381.71 831.34 381.97 830.88 381.97 830.88 381.71" style="fill:#52bedc"/><polygon points="834.87 379.25 834.99 379.1 835.11 379.25 834.99 379.42 834.87 379.25" style="fill:#52bedc"/><g id="endpoint_2"><polygon points="779.29 371.66 807.99 371.83 808.38 371.66 808.84 371.66 808.99 371.93 809.15 371.66 809.41 371.66 809.55 371.93 809.77 371.66 812.56 371.66 813.03 371.8 813.52 371.85 814 371.66 815.13 371.66 815.39 371.94 816.27 371.94 816.6 371.66 816.85 371.66 817.22 371.88 817.11 372.19 816.85 372.28 816.56 372.52 815.42 372.52 815.18 372.39 808.02 372.35 807.7 372.52 806.83 372.52 806.65 372.37 805.66 372.36 805.43 372.52 804.54 372.52 804.19 372.36 801.47 372.37 801.08 372.52 800.54 372.52 799.66 372.27 798.51 372.22 797.42 372.52 797.16 372.47 796.82 372.37 795.42 372.39 795.14 372.52 778.51 372.52 779.29 371.66" style="fill:#52bedc"/><path d="M3150.5,606.31a3.16,3.16,0,1,1,3.15-3.16A3.17,3.17,0,0,1,3150.5,606.31Zm0-5.45a2.3,2.3,0,1,0,2.29,2.29A2.3,2.3,0,0,0,3150.5,600.86Z" transform="translate(-2330.67 -231)" style="fill:#52bedc"/></g><path d="M3123.7,591.71" transform="translate(-2330.67 -231)" style="fill:#52bedc"/><polygon points="822.28 370.8 823.43 370.8 825.19 370.99 841.99 370.86 841.74 371.37 825.14 371.37 824.69 371.25 822.6 371.21 822.28 370.8" style="fill:#52bedc"/><polygon points="822.86 371.94 826.29 371.94 828.44 372.08 837.18 372.26 841.51 372.2 841.99 372.21 841.61 372.52 841.17 372.52 828.58 372.52 826.5 372.15 826.26 372.23 825.77 372.4 824.43 372.3 823.67 372.23 822.86 372.23 822.86 371.94" style="fill:#52bedc"/><path d="M3176.41,602.09h.86l.18.28.41-.28h.55l.4-.29a3,3,0,0,0,.39.29,1.58,1.58,0,0,1,.29.14l.07.14.28-.28h2l.21-.29.41.29.27.28.25-.28h.86l.59.28.88-.28h7.4l.29.28h.28l.39-.28.47.19v.09h.29v-.28h.85l.33.28h11.12l1.41.35-2.47.22h-4.95l-.14-.22-.43.22h-.57l-.27-.25-.29.11-1.66.06-.2-.11-.16.19h-1.14l-.34-.19-.18.19h-.91l-.49-.28-4.93,0-.52.3h-.36l-.23-.32-12.25,0Z" transform="translate(-2330.67 -231)" style="fill:#52bedc"/><polygon points="844.44 374.2 845.15 374.34 843.9 374.54 844.44 374.2" style="fill:#52bedc"/><polygon points="843.26 376.63 844.26 377.04 843.81 377.38 842.88 377.38 843.26 376.63" style="fill:#52bedc"/><polygon points="845.2 372.14 850.32 372.23 850.32 372.52 849.75 372.52 849.36 372.8 848.89 372.8 848.45 372.52 846.6 372.52 846.1 372.8 845.74 372.52 845.08 372.47 845.2 372.14" style="fill:#52bedc"/><rect x="853.76" y="372.23" width="10.87" height="0.57" style="fill:#52bedc"/><polygon points="865.21 372.65 865.74 372.53 866.05 372.23 866.34 372.23 866.34 372.77 866.34 372.8 865.49 372.8 865.21 372.65" style="fill:#52bedc"/><polygon points="867.48 372.69 867.77 372.52 868.04 372.52 868.37 372.65 868.09 372.8 867.77 372.8 867.48 372.69" style="fill:#52bedc"/><polygon points="871.25 372.52 871.21 372.8 876.64 372.8 876.64 372.52 871.25 372.52" style="fill:#52bedc"/><polygon points="878.28 370.5 878.8 370.23 879.22 370.23 887.52 370.23 887.52 370.51 886.38 370.8 886.12 370.72 885.93 370.61 882.95 370.64 882.9 370.8 882.65 370.8 882.54 370.67 879.46 370.51 878.93 370.51 878.77 370.8 878.28 370.5" style="fill:#52bedc"/><rect x="885.8" y="371.66" width="0.25" height="0.57" style="fill:#52bedc"/><path d="M3218.76,601.8v-.29l.29-.28h1.14l.26.28s-.26.3-.3.29Z" transform="translate(-2330.67 -231)" style="fill:#52bedc"/><polygon points="897.53 377.09 898.39 377.09 898.39 377.38 897.53 377.43 897.53 377.09" style="fill:#52bedc"/><polygon points="911.85 372.8 912.08 372.53 912.38 372.8 912.12 373.09 911.85 372.8" style="fill:#52bedc"/><polygon points="918.75 372.81 919.25 372.53 919.8 372.81 919.36 373.09 918.75 372.81" style="fill:#52bedc"/><polygon points="925.28 372.96 925.55 372.81 925.84 372.96 925.56 373.09 925.28 372.96" style="fill:#52bedc"/><polygon points="847.3 377.1 847.74 376.8 847.96 376.52 848.32 376.81 849.46 376.81 849.57 377.09 849.75 377.09 850.09 376.81 850.61 376.81 850.89 376.81 851.38 376.51 852.08 376.81 853.18 376.81 853.43 377.1 853.74 376.81 855.47 376.81 856.04 377.09 856.62 377.09 857.05 376.81 858.33 376.81 858.67 377.09 860.91 377.09 861.2 376.81 861.77 376.84 862.05 377.22 861.72 377.38 854.9 377.38 854.46 377.26 853.47 377.38 852.9 377.38 852.63 377.3 852.31 377.38 851.75 377.38 851.53 377.25 850.43 377.29 850.3 377.38 849.75 377.38 849.37 377.29 848.9 377.3 848.61 377.38 848.32 377.38 847.18 377.27 847.3 377.1" style="fill:#52bedc"/><polygon points="847.76 379.96 848.04 379.69 848.29 379.96 848.02 380.23 847.76 379.96" style="fill:#52bedc"/><rect x="850.61" y="375.95" width="0.86" height="0.29" style="fill:#52bedc"/><polygon points="855.2 373.93 855.35 373.65 855.45 373.93 855.32 374.2 855.2 373.93" style="fill:#52bedc"/><polygon points="857.18 376.24 857.47 375.95 857.76 376.24 857.47 376.51 857.18 376.24" style="fill:#52bedc"/><rect x="858.33" y="375.95" width="0.3" height="0.29" style="fill:#52bedc"/><rect x="859.19" y="375.95" width="1.14" height="0.29" style="fill:#52bedc"/></g><g id="CyberpunkBlue"><path id="C_blue" d="M2502.8,529.21l18.55-8.41,16.58-5L2633.79,477,2658,472.9l2.29,1.32.22.76,2.62,2.31-7.17,3.82-8.89,4.29-10.85-1.72-1.7,0-85.66,47.42,10.64-.52,24.79-.82,36.74-.71,6,.64,17.14,2.58,2.29,1.48,2.26,1.4,2.79.48,1.48.12,1.46,2,.64,4s-2.57,2.73-3.72,4c0,0-4.58,5.14-5.2,5.43h-1.12l-1.48-1.15-.52-.26-1.88,0-2.1.54-2.31,0-.58-.29-.59.29-8.11.31-40.9,2.65-30.41,1.62h-25.85s-11.11,1.52-31.9,2.57h-1s-4.1-1.09-14.59-5.67l-12.35-5.91,1.57-1.29,17.31-7.92,2-.95,6.39-2,5.34-2.57,1.39-.53Z" transform="translate(-2330.67 -231)" style="fill:#52bedc"/><path id="Y_blue" d="M2651.9,525.72a40.85,40.85,0,0,0,.28,6.39s.75,3.18,2,4.18c0,0,4,3.36,4.52,4.07,0,0,3.16,3,4.27,3.18l4.73-2.93-4.42,5.94-1.77.56-1.19,1.47-2.42,4.8-22.49,27.43-1.46.62-.19.27-.21,2.83-4.37,4.32-1.07.68-.23.31-.84,3.81L2610.13,614l-1.65,3.33-.68,2s-2.47,3.47-3.68,3.37l-2.33,3.14s-3.54,5.73-5.83,7.73h.5a18.88,18.88,0,0,0,4.19-2.9s11.76-15,13-15.95c0,0,2.14-2.79,2.93-2.79a4.51,4.51,0,0,0,1.57-.93,7.74,7.74,0,0,1,5.47-2.57s5.83-4.4,12-5.73a1.84,1.84,0,0,1,1.86.76l73.62-89.37,3-3.55h-3.75l-18.51,1-25.34,18.76h-6.22l-4.15-5.51-1.72-1.28Z" transform="translate(-2330.67 -231)" style="fill:#52bedc"/><path id="BER_blue" d="M2933.9,524.62l3.86-1.82-1.75-2.68-16.81-8.73-31.9-.39-47.07-1.51-49,1L2785.3,513l-3.63,6.49-8.39-.2-30.42-8.77,31.85-38.41a6.84,6.84,0,0,0,1.68-3.54s.36-4.72-1.36-7.9l.87-5.61a11.38,11.38,0,0,0,2.32-4.34A3.71,3.71,0,0,1,2780,449a3.73,3.73,0,0,0,1.24-1.55l4.92-6.7s.26-1.08-.39-.65a18,18,0,0,0-3.67,4.53s-.23-1.12-1,.1c0,0-.72,1.52-1.87,1.57,0,0-2.55,3.22-2.52,4.91,0,0-1.17,3-2.67,2.91l-5,12.54-25,24.82-24.67,30.4-15.1,9.23-4,2.5-.8,1-.55,5.39-12.59,11.71-1.12,1.47,2,1.15-8,10.08-1.38,2.44,7.37,5s10.78,7.56,13.35,8.85l20.41-15.05,31.19-23.08,20.17-14.68-.24,1.76-3.39,3.77-.81.29-1.62,2.19-1.79,6-6.7,6.25-.21.19-.86,1.28-2.84,3.91-.55.79-.38.6,1.24,1.21.36.5s-.74,1.94-.41,2.53l8.3,6.56a1.52,1.52,0,0,0,1.79.31l3.1-1.1,1.34,0s20-6.74,51.16-10.68c0,0,4.26-7.47,5-10.51h-2.29l-16.77-.29-3.26.29-3.86.86-5,1.36-13.42,1.82s4.33-7.9,5.44-8.87l38.52-4.36a19.17,19.17,0,0,0,3.32-5,35.62,35.62,0,0,0,2.22-3.4v-.47l-5.15,0-30.9-1.43,1.86-3.4,18.42-.82s1.18-2.47,3.18-2.61l24,.32,3-3.26,2.34,10.19s-9.92,11.54-10.4,11.82-5.15,6.68-5.15,6.68l-.74.86-4.54,10.12.32.68-3.47,8-4.29,11-.57,2.54a69.34,69.34,0,0,0,10.87,11.76s6.47-14.77,7.19-16.34l10.78-23.28,11.5,4.72s13.91,6,14.27,6.36c0,0,15.31,5.69,16.6,6.12,0,0,20,7.87,27.35,8.87a94.77,94.77,0,0,0,7.16-6.58,38.51,38.51,0,0,1,4.43-4.11,7.27,7.27,0,0,0,1.68-2.76l-2.93-1.11-7.19-6-13-4.36L2893.2,546l-4.35-2.54-1.52-.68-5.15-1-.82-1,23.14-6.15S2925.31,528.63,2933.9,524.62Zm-198.67,8.8-1.72,1.1L2709,551.44l14.83-18,8.54-9.73,15.5.86Zm123-.38-7-4.25,4.24-9.91s34,0,44.2.9l4.25,2.43Z" transform="translate(-2330.67 -231)" style="fill:#52bedc"/><path id="PU_blue" d="M3088.5,513.82l-1.33-2.43a10.38,10.38,0,0,1-2-6.56l1.69-1.57a3.28,3.28,0,0,1-.52-.93,26.68,26.68,0,0,1,1-7.51l-1-.12-1.4.38-23.61,39.41-5.36,6.37-9.95,5.58-7.51,5.79-4,1.84-7.15,4.48-.26-.86,4.53-10.8c.19-.57,2.43-8,2.43-8l-.07-2.26-.36-.81.05-4.53,22.07-7.89a129,129,0,0,1,3.56-17.62,5.1,5.1,0,0,1,.78-1h-1.1l-.73,0-1.45-.45L3029,506.54l-53.49,1.87-10.92.4-11,12.59-14.25,21.46-.39.57-.24.58L2928,549l-4.64.12-.57.33,1.25,2.7-2.86,1.38,4.86,3.72a22.28,22.28,0,0,0,4.87,3l-1,1.93-5.69,20.46-19.45,36.1-8.06,18.4-2.05,4.73a6.07,6.07,0,0,1,2.67-2.25,6.59,6.59,0,0,0,3.77-3.48c4.57-11.3,8.25-16.31,8.25-16.31a5.91,5.91,0,0,0,3.1-2l1.62-.38c4-4.24,11-8.15,11-8.15,3-1.39,3.39-2.91,3.39-2.91l3.43-7,15.26-30.71a81.25,81.25,0,0,1,4.58-9.2c.91-2,2-1.91,2-1.91L3020,536l-.51.6-.39.88.57.66-5.34,10.35-.91,1.91-3.86,18.21c-1,1.53-.67,2.24-.67,2.24l9.78,7.59c2-2.1,10.2-7.73,10.2-7.73,1.24-.71,11.45-7.72,11.45-7.72l5.67-3.77s-2.33,8.3-3.62,9.35-1,3.33-1,3.33c2,0,4.73,2.1,4.73,2.1l7.53,4.15,9.73-19.55a84.24,84.24,0,0,1,4.91-8.35c1.29-3.86,5.43-10.2,5.43-10.2l7.35-12.83,7.51-12.68Zm-91.15,15-21.46,6-9.77,2.07-2.72.77,1.29-2.77v-.62l2.91-5.35a50.24,50.24,0,0,1,3.41-5.71l51.47-3.51Z" transform="translate(-2330.67 -231)" style="fill:#52bedc"/><polygon points="755.93 262.04 758.3 258.07 758.77 258.07 759.03 258.41 758.11 261.18 757.93 262.44 756.78 262.1 755.93 262.04" style="fill:#52bedc"/><path id="N_blue" d="M3069.82,559.34l-2.35,5.86-1.51,3.41.49-.24,3.17-.09a95.25,95.25,0,0,1,11.78-1.67l1.76-.26.53-.31,14-24.56,6.65,27.49,12.59-.34,14-24.91,16.92-31.19h-3.72l-20.81,16.35-3,2.43-1.09.46-.45.76-.27.75-2.59,9-1.68,2.15-3.08.47-3.22-4.19-7-5.11-4.55-1.15-19.7,12.16-2,1.5-.37.72-.23,1.54-1.11,3.32Z" transform="translate(-2330.67 -231)" style="fill:#52bedc"/><path id="K_blue" d="M3176.41,506h2.29l-10.73,20L3250,487.74l7.72-3.53,3.72-1.72,1.77-1.14h.42v.57l-2,3.1s-5,2.24-6.82,6.05l-3.75,5.89a6.73,6.73,0,0,1-2.5,1.63L3227,509.15a14.36,14.36,0,0,1-3.87,3.24l-39.58,20.79,4.58,2.67,9,6.58,6,3.53-.14.43,2.62,1.91-2.33,1.09.9.62,2.63,1.89,1.62.69,1.14.59a14.93,14.93,0,0,1,.62,2.27l-.18,1.07L3231.26,569l57,32.65v1.9l2.15,1.82.09.47.62.57v.86l1.16,3.93.27.39v2l.86,1.27-.18.45h-.39l-1.65-1.29-77-40.77-30.4-16.45a9.81,9.81,0,0,1-2.15-2.15l-22.31-12.34L3151.13,557l-7.16,12.7a30.1,30.1,0,0,0-1.89,4.51l-.5,0s-10.37-6.94-12.84-10.3a112.39,112.39,0,0,1,7.37-14.8l.42-.72,3.08-2.54,3.76-12.23-.41-1.06.82-1.18,9.21-7.85L3164.9,511l10.33-5.9Z" transform="translate(-2330.67 -231)" style="fill:#52bedc"/></g><g id="CyberpunkYellow"><path id="C_top" d="M2659.41,470.17l-3.77-2.27-.24-.57-8.27-5.15H2646l-7.29,3.14-1.08-.85-.34.18s-7.95,4.53-12.53,5.87c0,0-10.41,4.84-13.94,7.41a19.8,19.8,0,0,0-3.72,2.28s-.39.47-3.92,2.29c0,0-8.58,4.19-11.82,5.91,0,0-24.32,11.63-27.85,13.16L2524,519.64l-2.57,1.19h2.1l-9.54,5.63s-1.24-.05-1.72.71l-.38.81h1.34a1.92,1.92,0,0,0,1.33,1.72h2.1l.48-.43.43.11,1.59,0,.07-.25.86,0v.28h1.15l.6.58h.83l.61.57h1.1l.25-.34.08-.5.25,0,.26.25h1.43l.36.56h1.38l.32-.54,1.93,0,0,.57h1.72l.3-.57h1.72l.53.84h.59l0-.25,1.09,0,0-.58h1.4l.55.57.29,0,0,.25h.84l.27,1.43H2545l0-.84.34-.23h2l0,1.37h4.85v-1.13l.34-.28,5.66,0v-.27l1.43-.05,0-.25-5.72,0-11.61.28-.13-.3,11.15-6v-1.12h.61l0,.83h.27l78.56-42.92,9.89,1.72h1.12v-.28l19.65-9.47S2663.2,472.41,2659.41,470.17ZM2518.9,524.55h-.26v-.29h.26Zm3.41,0h-.23V524h.23Zm4.06,0h-.3l-.28-.29v-.56l-.27-.28h.56V524l.29.28Zm.27-1.43h-.56v-.29h.56Zm1.16,1.72h-.86v-.29h.86Zm2.29-.29h-.58v-.86h.29v.57h.29Zm1.43.29h-1.15v-.29h1.15Zm2.56-.29h-.56v-.29h.56Zm.32-1.72v.29h-.31v-.29Zm1.12,2h-1.43v-.29h1.43Zm3.44,0h-.58v-.29h.58Zm1.43-1.72h-.29v-.29h.29Zm2,1.72h-.29l-.09-.29h-.48v-1.14h.57v1.14h.29Zm.85-.86H2543v-.29h.28Zm2,1.12H2545v-.55h.58Zm2-1.41h-.57v-.28l.24-.29h.37l.24.36Zm1.72,1.72h-.57v-.29l.57,0Zm1.73-2.29h-.26l-.05-.29h.31Zm1.7-.11h-.28v-.18h.28Zm2,.11h-.86v-.29h.86Z" transform="translate(-2330.67 -231)" style="fill:#fff000"/><polygon points="264.94 318.69 270.09 318.5 266.67 319.01 264.94 319.01 264.94 318.69" style="fill:#fff000"/><polygon points="310.43 317.01 311 317.01 311 317.3 311.57 317.3 311.57 317.01 312.72 317.01 312.13 317.87 311.57 317.87 310.43 317.01" style="fill:#fff000"/><path id="C_bottom" d="M2651.11,533.18l-4.82-.09a26.72,26.72,0,0,0-2.33-1.77,34.56,34.56,0,0,0-6.92-5.77,3.72,3.72,0,0,0-2.71-.33,31.15,31.15,0,0,1-10.45,2.76l-46,1.72v.55l1.43-.26h4.06l.78.57,2,0,1.12-.33.34-.26.56.55.27.3h1.16l.29-.25.53,0,.34-.27h.56l.59.29h.57v.27h1.43v-.28l.27,0,.59-.55h.53l.61.55.54,0,0,.25h1.43l.87-.57h.86l.56.57,1.71,0,.88-.54h.84l.3.54,2,0,.32-.56h1.13l.28.28h.58l.28.29,1.45,0,0-.23,1.16,0,.82.57.82,0,.86-.65,1.76,0,.26.32,2-.07,1.41-.5.07.57,2.56,0v-.28h.61l1.39,1.14h.54l1.18.86h2l.26.32-.25.25h-4l-.27.29v.27l-2.55-.29-1.17,0-2.89.31-.54.25-.29,0v-.27l-2-.28-.87,0-.59.29V534l-1.42,0-.31-.27-2,0-1.11,0-.28.25-1.47,0v-.32l-4.29,0V534H2601v-.31l-3.72,0v.23l-.57-.21-1.74-.05-.12.31-.14-.28h-2.58V534l-2.3,0-.27-.23H2589l-.3.27-1.39,0-8,.34-.38.28-.79,0-.28-.53h-1.1l-.41.23-.78,0L2575,534l-.82,0-.61.5-.31,0-.27-.26-2-.29h-2.29l-.59.18-.27-.46h-1l-.48.32-.23,0v-.31l-.25,0-.4.5-.52,0-.26-.24H2563l-.19.26-1,0v-1.41l-1.14,0V534l-.5.57-.38-.05-.26-.24-2.67,0-.2-1.69h-.83l-.64,1.41-.24,0v.26l-.92,0-.27-.22-1.08,0-.28.33-.29-.36-.6,0v.29h-.45l-.19-.28-3.36,0-.26-.81-1.2-.1-.83.93h-1.72l-.4.29-1-1.46-1.69,0-.31,1.14h-.57l-.17.55-.12-.57-3.15,0-.31-1.09-.83,0-.29.84-.31.26-.26.07v-.28l-1.71,0-.34.26-1.12,0-.26-1.43h-.86l-.29.31-.28,1.12h-.29l-.28-.26-2.56-.05-.26.26-.33,0v-.28l-.25-2.56-4.31,0,.55.57h-5.15v-.55l-6.29,0-.53-.27-.33.24-2,0-.33-.29h-.83l-.91.85-1.41.3v.57h-.28v-.29H2503l0-.5.28-.07v-.26l-.07-.26-8.85,3.12a48.27,48.27,0,0,0-7.91,3.13A34.62,34.62,0,0,1,2478,540h-4.91l-2-.45a35.53,35.53,0,0,0-5.45,3c10.25,5.44,27.56,12.4,27.56,12.4h.67c1.36,0,15.71-.64,15.71-.64l19.88-2H2549l23.71-.9,0-2.53,11.16,0-3.45.27V550l-.28,0v-.28h-4l-.53.28h-1.74v.86l.57.29,8.94-.27,12-.88v-.26l-3.09-.45,4.71-.14.38-.29V548H2597v-.28l.48,0,.35.3,0,.86h.52l.06.29h.24l.44-.25,3.89,0v.29l22.61-.88V548h-4.4l.39-.57h5.71v-.29h17.36l7.34-8Zm-160.75,3.1h.51v.55h-.51Zm0,2.34h.3v.22h-.3Zm-2.86,3.1h-.29v-.29h.29Zm1.95-3.45h-.48V538h.48Zm.91,4.3v-.85h.85l.34.85Zm1.71-2.34h-.28V540h.28Zm.86-3.59h-.28v-.36h.28Zm1.1,1.63h-.48V538h.48Zm6.67-3.13h.33v.26h-.33Zm0,1.14h.48v.27h-.48Zm-5.15-1.3h.39v.42h-.39Zm.49,1.3v.27h-.23v-.27Zm-.82,3.72h.29v.23h-.29Zm-.88-3.72h-.21V536h.21Zm2.31,6.29h-1.1l-.59-.85h1.69Zm2.27-4.22h-.21V538h.21Zm3.45,3.6-.57.34v.28h-.62l-.58-.78,1,.18.77-.25Zm2.29-3.68h0v.34h-.52v-.34h-.34V538h.86Zm1.22,4.3-.38-1.69.59-.31v.81l.86,1.19Zm.5-6.29v.57h-.29v-.57Zm-.29-.88v-.21h.29v.21Zm1.15,3.46h-.31v.32h-.23v-.32h-.32v-.29h.86Zm1.14,3.43-.57-.29v-.28h.57Zm-.57-2V540h.23v.29Zm-.57-6.58-1.15-1.15,0-.27-.6,0v-.57h2.58l.57.57h.28v1.15l-.33.29Zm2.86,4.57v.29h-.86v-.29h-.29V538h1.15Zm1.71-2.86h-.57v-.28h.57Zm.1.86v.57h-.31v-.57Zm-.38,2.29v.27h-.29v-.27Zm-.29-1.47h-.57v-.25h.57Zm1.06,5.47h-1.06v-.85h1.15Zm1.23-.67-.14.05-.14-.23h.28Zm.57-8.49V534h-3.74l-.27-.57h-.56v-.57h.54l.29.15,3-.15h.57l.12.27Zm1.15,5.16-.86-.3V538h.86Zm2.57,4h-1.43l-.28-.78v-1.22h.57l.08.88.76.37.3.52Zm-1.73-5.47v-.43h.23v.43Zm.76-.82v.57h-.17v-.57Zm-.17-.88v-.26h.34v.26Zm.79,3.62-.51.16v-.61h.86Zm1.21,1.84h-.28V540h.28Zm-2.87-6.87h-.85v-.57l3.07.05.37-.62h.25l.89,1.14Zm4.39,4.58-.37-.29V538h.27l.28.28Zm2.2,4h-.86v-.28l.58-.29.27.29Zm-.86-7.15v-.28l.29.16Zm.29,1.47v.21h-.25v-.25Zm0,3.4v.57l-.29-.57Zm.86-1.15-.43-.27h-.43v-.23l.59,0,.27.22Zm1.14,2.81h-.57v-.23h.57Zm0-8h-2.29l-.66.14-.2.15v-.86l1.07,0,.08-.61h.29v.28l1,.06.12-.06h.57Zm1.43,4.58-.84-.3.27-.27h.57Zm.86-1.72h.57l.59-.28.27.32v.25h-1.43Zm.86,1.72v.27h-.29v-.27Zm.29,4h-1.15V542l.29-.28h.86Zm.57-3.43h-.29v-.28h.29Zm.57,1.66v-.51h.29Zm2.29-2-.22.09-.6-.87h.57l.25.28Zm2.29,3.79h-1.47l0-2h.57l-.2.29-.09.86h.79l.36.28Zm0-3.43h-.86v-.28h.86Zm-1.47-2,.61-.57v-1.15h.29l0,1.34.54.38Zm2.61,4.86-.28-.07v-.21h.28Zm0-1.14h-.28v-.57h.28Zm1.15-2.29H2535V538h.29Zm0-2.86h-.3v-.29h.3Zm1.7-.29h.86v.29H2537Zm-.2,1.41.51-.26h.26l.29.28v.29l-1.14,0Zm.56,4H2537v-.57h.29Zm-.36,1.71-.07-.57-.21-.07v-.5h.28v.43l.86.21,0,.5Zm1.17-3.52-.56.09v-.28h.56Zm.84,1.84-.29-.09v-.23h.29Zm3.43-5.47h.57v.36l-.57-.07Zm-1.15,3.44h-.57v-.58h.57Zm.87-2,.29-.07.59-.21.26.28v.29h-1.43Zm.85,5.72h-.57v-.85h.57Zm.57-3.43h-1.14l0-.28h1.16Zm.68,1.72-.1-.57h.57Zm3.62-5.44h.28v.36l-.28-.07Zm-.29,1.43h.86l.27.29h-1.13Zm-1.7,1.43.84.58h-.86Zm2,4.29h-1.15v-.28h1.15Zm0-1.68-.29-.09v-.23h.29Zm.57-1.75v-.28h.28v.28Zm.86,3.43h-.49l-.09-.28h.58Zm.53-1.71h-.12l-.13-.57.25.09Zm0-1.75h-.29v-.25h.29Zm1.46-.25v-.58l.24.58Zm1.67,3.71-.56-.28h.86Zm2-.28h-.29l.29-.56Zm4,.28h-1.45l0-.28,1-.57h1l-.58.57Zm1.13,0v-.28h.28Zm.57-1.84-.29.16v-.32h.29Zm4.74-.73.37,0-.37.27Zm.7,2h-.58l-.25.57H2563v-.28l1.17-.57h2Zm5.65.15-1.17.42H2569v-.85l1.41,0,.38-.27h.78l.31.29Zm4.68.12-.14.3h-1.9l0-.3.93-.55h1.32Zm5.24-2.25.07,0,.38,0v.52l-.57-.27Zm.45,2v.55h-2.29v-.25l.7-.6h1.87Zm.28,8.21h-.57V550h.57Zm4.33-7.66h-2v-.28h.86l1-.57h.75l-.56.57Zm.82-2.25H2587V540h.57Zm4.3,1.68-.29.29v.28h-1.43l.06-.28.33-.57h2.18Zm5.15.57-1.72-.07v-.78H2597Zm1.14-2.3-.29.34-.28-.61h.57ZM2599,548v-.28h.57Zm4-6-.85.08v.5h-1.72l.23-.25,1.07-.6h1.85Zm4.64.28,0,.3h-1.45l0-.3,1-.55h1.29Zm3.38.3V542l.17-.28.68.85Zm2.28-1.68v-.6h.29Zm5.73,1.4-.24.28h-1.77l0-.33.26-.52h.57l.16.28h.7l.29-.28Zm20.6-8.87h.28v-.29h.57v.29l-.29.29h-.56Zm-2.29-.86h.56l.3.29v.28h-.86Zm-5.44,0h.86v.57h-.58l-.28-.28Zm-10,10V542h1.71l.29.57Zm4.58,0v-.28h1.14l.11.28Zm3.11-8.86h-.25l-.29-.29v-.29h.8l0,.29Zm2.05,7.86a47.9,47.9,0,0,1,9.94,0S2633.78,542.05,2631.67,541.57Zm11.43-8.52h-.27v-.2h-.3v-.29h.57Zm2.29.66h-.28l-.15-.29h-.43v-.29h.55l.31.29Z" transform="translate(-2330.67 -231)" style="fill:#fff000"/><path id="Y_top" d="M2692.11,507.63l-10.53,8.59c-4.9,3.82-15,12.59-15,12.59l-1.13.39,1.13-23.67c-.93-2.7-2.22-3-2.22-3-1.62.5-6.92,4-6.92,4l-6,4.76c-1.42,13.11,1.52,20.69,1.52,20.69l.67.9c2.81,3.72,9.3,7.78,9.3,7.78l9.73-6.54c-.86,2-11.07,13-11.07,13l8.06.09.67,1.38h-9.92l-5.39,6.08c-3.95,4.49-13,16.67-13,16.67l-8,10.1,19.09.09,10.09-12.19,13.41-16.17v-.28H2676l-1.64.26-.07-.55H2676l0-.86h-3.75l0-.32,2.47.25.75-.22H2678l13.77-16.88h-15.45V534h16l21.46-26,.32-.3ZM2648.82,566h-.57v-.29h.57Zm.5-.58h-.21v-.28h.21Zm1.81,0h-.3v-.28h.3Zm1.41.58H2652l.66-.81.14.52Zm20.32-13.16h.57v.85l-.57-.43Zm-.58-.29h.29v.57h-.29Zm-2.86-2v-.29h.57v.57h-.34Zm.84,9.72h-.55v-.57h.89Zm4-11.39-.25-.09,0-.25h.29Zm1.71,0-.86-.12v-.17h.86Z" transform="translate(-2330.67 -231)" style="fill:#fff000"/><path id="Y_bottom" d="M2650.54,583.49l-.29-.29h1.19l.92-1.11-18.56-.39-5.65,7.83.64,0-.07.25-.8.09-10.21,13.28-16.06,20a54.35,54.35,0,0,0-5,6.69,10.18,10.18,0,0,0-2.75,2.9l4.83-2.54,5-6.48,4.65-5.5c1-1,6.05-7.16,6.05-7.16.46-.57,2.07-.39,2.07-.39l1.93-2.61a11.75,11.75,0,0,0,4.58-1.22l8.8-5c2,.32,4.9-1,4.9-1l14.5-17.38Zm-16,6.29h-2v-.28h2Zm2-6.29H2634l.28-.26,2.25,0Zm1.72,6.29v-.28h.57l.32.28Zm2.25-6.29h-.25l-.29-.29h.86Zm3.75,6.58-.45-.06-.31-.23h-.38v-.28h.57l.25.28h.32Zm1.43-6.58h-1.14v-.29h1.14Zm2.29,0v-.29h1.43l.28.29Z" transform="translate(-2330.67 -231)" style="fill:#fff000"/><path id="BER_top" d="M2931.18,509.67a3,3,0,0,0-1.43-.57S2880.5,505,2858,504.74l-11.59-.07a25.73,25.73,0,0,1-2.14,2.9l-59.32-1s-5.15,6.34-5.54,7.54a16.56,16.56,0,0,1-2.52,3.33l-4.2-7.43-31.09-.67,17.74-21.89L2775,468.09a49.65,49.65,0,0,0-.48-7.34s-.71-5.58.05-7c0,0,2.48-3.67,2.72-5.06a4.58,4.58,0,0,1,1.57-1.43,1.91,1.91,0,0,0,1.14-1.33,11.46,11.46,0,0,1,1.43-2s3.44-4.29,3.77-5c0,0,.29-1.2-.52-.72l-3.1,3.67-1.15-.09a20.6,20.6,0,0,1-2.19,2.57s-2.81,3.24-2.86,4.63a9.76,9.76,0,0,1-3.24,4.15,31.7,31.7,0,0,0-3.68,4.57s-2.28,4.77-3.62,5.15c0,0-.33,1.86-1.81,2.05,0,0,.1-1,.76-1a4.43,4.43,0,0,0-3.53,2.05,1.49,1.49,0,0,1-1.57,1.05l-2.11-.11L2740.11,486l-17.62,20.19-16.9,20.75-5.6,7,21-.1,11.15-13.12,18.64,1.32,0,.39-16.09,11.41,20.27-.18,0-1.12.79,1.2h2.36l15.63-11.43-8.05,11.43H2769s5.83,6,7,6.29l1.54.29h3.22s1.75-3.51,3.15-4.62l38.37-3.72s4.83-8.58,6.47-9.37l-38.26,1.4s2.54-5.47,2.64-5.94l18.24-.39s1.79-3.08,2.83-3.15l21.28.07,3.57.29s2.94-3.65,4-4L2828.14,544h10.09l13.09-1.17.07-.24h.28l0,.31,1.72,0,0-.31,2,0,15.64,0,.61.57v-.59h.39l.38.43,0-.43.57,0,.09.27,14.13-.09-8.47-3.43.1-.86,1,.32,9.44-2.55V536h.22l0,.17,3.81-1,0-.28h.26l0,.21,7.65-2.07,22-6.58s13.27-3.76,14.31-7.15C2937.76,519.26,2932.22,511.78,2931.18,509.67ZM2779,531.42h3.15l-.09.28H2779Zm-.57-.29-.3-.09-.18-.17-.31-.27.5.17.29.07Zm6.3,1.43H2779v-.29h5.73Zm75.53,7.15H2860v-.57h.29Zm4-.57-.57.57v-.85h.57Zm3.72,0h-.57v-.28h.29v-.58h.28Zm3.76,0h-.32v-.57h.32Zm3.68.29-.28.28h-.29v-.57h.29v-.86h.28Zm14.59-4h-.28v-.57h.28Zm.11-1.73h-.39v-.27h.57Zm.75.23h-.28v-.21h.28Zm-6.39-10c-4.15.86-26.75,6.91-26.75,6.91-1.29-1-7.2-3-7.2-3l4.63-11.4c17.11-.52,51.16,1.19,51.16,1.19C2905,518.49,2884.48,523.93,2884.48,523.93Z" transform="translate(-2330.67 -231)" style="fill:#fff000"/><path id="B_bottom" d="M2755,535.76l-12.28-.34v-.86h-9.16l-18.91,12.88c-1.69,1-6.2,4.27-6.2,4.27l.51,0V552h-1.17l-1.1.57.22.79-1.29,0-.1.31h-.57l1.17-1.75-1.74,0v.76l.2.62-.51-.29-.05-.83-.76-.31,0-.24h3.13l14-17.17h-20.89l-13.18,17.15,1.45,0v-.29h.53l0,.29h1.16l0-.21.28-.08,0,.29h2.76l.41-.24.28.22,4.82,0-.48.43.5,1h-1.16l-11.71,0-7.77,10.48,7.51,5.24c2.59,2,12.51,8.23,12.51,8.23.91.55,1.17.38,1.17.38l8-5.82,9.73-7.15,0-.24h-1.43l-.54.3,0-.35-2.48.05-3.46.26-.05.57-.85,0v2h-5.11l-.07-.6-.81-.52.81-.1,0-.5-1.77,0-.83.33H2686.9l-1.15-.3.6-.53,2.81,0v.29h.58l.26-.26,5.46,0v.29h.81l.33-.29h2.74l.41-.86h2.5l-.21-.43.29-.42H2708l1.39-.3.07-1.14h-1.08l3.37-1.14.9,0,1.1,1.16h2.28l0-1.41.26-.05v.32h2.58v-.31l.26,0,0,.29h.64l.21-.26,0-.57-.24-.31h.81l0,.85h1.64l1.79-1.43h-2l0-.25,1.41-.32h1.31l4.93-3.71-5.41-.08,0-.21h5.72l2.53-1.85-.82.42h-4.72l-2.79.52-7.63,0-1.33-1.36-1.77-.27,1.67-.35,3-.24.43.26.86,0,.29-.24h.64l.5.28h.5l.31-.27,1.29,0,.43.21,10.61,0,2.88-2.2-15.16-.07.07-.24.79-.59,10.23.26,5.43-.26,15.6-11.66-11.19-.29,11.64-.07Zm-59.78,13.63-.28.34h-.58v-.57l.29-.29h.57Zm.86-3.95h-.29v-.58h.29Zm-12.64,12.87h-.23V558h.23Zm.84,7.58-.22.15v-.29h.22Zm17.81,2.7,2.07-.27H2706l.82.27.25-.27.08.27v.31l-5.15-.07Zm-11.45-8h-.28l-.29-.29h-4v-.52l.56-.22,3.7-.09,0,.61.28.22Zm1.15,0v-.29h1.41l.31.29Zm2.81,0H2694l.28-.29h.24Zm1.19-.57v.28l-.08.3-.52-.56.25-.3h.35Zm5.46-8.3h.55V552h-.55Zm-.88,1.45.62-.3h.53v.57h-1.15Zm-1.43,7.42h-1.45l.46-.43.15-.14h.44l.4.28Zm.86-8.58h-.52l.26-.29h.26Zm.29,8.58V560l.57.29h.86l.47-.27.36.57Zm2.52-7.15h-.13l-.13-.29.26-.28Zm1.77,7.15h-1.15l.22-.56.19.28h.74Zm1.69,0h-.55v-.29h.55Zm3.17-7.15h-.57v-.29h.57Zm8.3,4.86h1.14l-.24.57h-1.19Zm0,1.15h.28v.28h-.57Zm2.29-10.33h-.29v-.26h.29Zm1.36,0h-.79v-.29h1.14Z" transform="translate(-2330.67 -231)" style="fill:#fff000"/><path id="E_bottom_1" d="M2764.13,535.71h4.29a4.56,4.56,0,0,1,2.81,1.38l4.3,4.53,2.61.12V542h1.72l-.86,1.43h-.86l-.64-.59-1.93,0-.22-.28-.57.24-1.59.31-1.2,0-.21-.26H2765l0,1.18-.22.25h.24l0,1-.8.49.27.47.55,0,0,1.93-9.42,0Z" transform="translate(-2330.67 -231)" style="fill:#fff000"/><path id="E_bottom_2" d="M2803,544l.26-.29.59.29h17.74l1.72-4.32-17.17,2.6-15.45,2.6L2777,547.77l.19-.93-4,0,.05,2.38-3.17,0-.38-.31-.48.28-7.08.06-.62.25h-6.8l-.63.89v.33l8-.34v1.12h.86l.22-.26.62.55H2775v-.57l.86.57v.86l-.93.29h-19.1l-.31.45-3.7.18-.55.8h1.41v.57h-1.79l-.43.5,11,8.37h.69a94.3,94.3,0,0,1,10-2.89l4.46-1.17-3-.57-3.89,0,.19-.22h6.89v-.28l.86,0v.31l3.13,0,5.47-1.46.56-1.17v-2l.59-.31,1.94,0,.9.31-.93.77.07,1.53.38.23h.48l2.81-.6.62-.21L2795,556l-.71-.28-2.58,0,.19-.6.08-1.14,2.57,0-.05-1.1-.45-.33,6.17,0v2.27a80.11,80.11,0,0,1,8.3-1.48v-.24l-1.14-.09v-.77l.44-.26.9,0,.66.55v.59a83.25,83.25,0,0,0,8.58-2v-.24l-.53-.28-1.18-.05V550h2.26l1.46-2.85h-5.73l0,.48.17.38h-.5v-.86h-5.44l0,.29H2801l-.26.86-.79.86-.11-2h-4.27l.31-.86h4l.07-1.14h1.36l-.29.24,0,.83.52.38,12.88,0,.26.26,5.41,0,1.22-2.59h-.58l-.3.24-.58,0-.26-.19h-1.14l-.36.29-6.77,0-.05.31-1.12,0-.38-.25h-5.63l-.24.5-.76.07-.17-.26-1.4-.07V544Zm-21.75,12-.57.32v.83h-.86l-.57-.31v-.27l.86-.32v-.53l.86,0-.29-.82h.57Zm2.58-1.71h-.29v2.86l.29.48-.59-.22-.27,0V554h.86Zm2.86-.86-2.29-.06v-.23h.86l.39-.28h.47l.57.35Zm0-1.43-.88.09-.25.19-1.45,0v-.52h2.58Zm3.72,1.37h-.57v-.51h.57Zm27.16-5.95h.27l.28.29-.25.28h-.3l-.25-.27Zm-3.42,2.57h.86v.58l-.43.28-.43-.41Zm-2.28,0h.57l.28.45v.41h-.28l-.31-.28-.26,0Zm-8,3.44h-.57l-.27-.29.84,0Zm4.58-2.92v.34h-.57l-.21-.52.49-.3Zm-1.71-1.66h1.14v.29h-1.14Zm-3.44-.25v.25h1.15l-.58.86h-.28l-.57-.58,0-.58Zm-.28-3.18h1.43l-.61.85h-.54L2803,546Z" transform="translate(-2330.67 -231)" style="fill:#fff000"/><path id="R_bottom_1" d="M2917.3,554.09l-1.21.11-.06-.54-7.67-2.57-.42.35-1.4-.23-1-.12.15-.24,1.67-.08s-11-4-14.24-5.52l-4.31-1.82h-42.33l-3.79.72-.17.39-1.22,0-.22-.29h-.32l-.43.25-.93,0-.1-.22h-1.11l-.47.25-1-.07-.29-.18h-1.36l0,.29-.43,0-.07-.25h-1.45l-.27.27-2.56,0-.3.17,0-.16-2-.07-.13.32h1.87v.58l-2.13,0-.27.6h1v.57H2827l-.15.29h1.37l-.07.28h-1.41l-1.4,3.15h1.45l.28.57h-2l-.91,2,.91.29v.3h-.86l-.19-.27-.42,1s-8.37,16.59-8.55,19.31c0,0,1.93,2.07,6,7l3.57,3.9.61.43.64-.43.83,0,5.15-12.06,5.54-12.19s2.79-6.33,3.18-7.37c0,0,.47-1.36.76-1.5v-.36h-1.44l-.3-.34-.25.09,0,.25h-.25v-.57l1.1,0,.36.21,1.08,0a4.94,4.94,0,0,1,.34-.77l-.59,0,.25-.29.55,0s1.07-3.18,2.27-3.47l5.87,2.37,5.7,2.27H2860v.27l-1.14,0-.07.25-.5-.27h-.86l0,.27a26.68,26.68,0,0,1,4.55,2.22l4,2.13v-.61l.29.07v.79a280.43,280.43,0,0,0,31,11.44s14.16,4.15,16.41,4.9c0,0,12.81-10.94,13.81-14Zm-95.67,8.51v-.28h.58l.28.28Zm4,0v-.28h.34l.23.28Zm.32-7.41-.61-.09v-.22h.29l.24-.28.09.28h.24Zm11.71-5.75h.26l.37.29h-.91Zm-1.75-1.71h.26l.34.14-.27.14h-.31l-.26-.14Zm-2,1.71h.29l.27-.24-.23.54-.56-.08Zm-1.13-1.71V548h-.57l-.29-.28Zm-2.57,1.71h.29v.3H2830Zm-1.43-1.71.27.28-.8-.06-.05-.22Zm-1.43,5.15h.59l.51.28.09.24-1.19.05Zm1.75,9.72h-.29l0-.33.32.05Zm.25-7.72v.28h-.86v-.28h.29l.34-.34.23.06Zm-1.15-4v-.57l.55-.24,0,.24h2.29l-.29.57Zm2.87,2.58v-.86h.26l.88.57v.24Zm2,9.15h-.86l.29-.28h.57Zm-.57-7.44v-.28l.59,0,.26.31Zm3.43-1.71h-1.23l.37-.57h.29l0,.28h.53Zm.57,7.72h-.28v-.28h.28Zm0-6v-.28l.25,0,.06.26Zm.88-4.57-.31.28h-5.43v-.57l.86.06.28-.35v.29h4.9l.25.29h.57v.28h-.85v-.28Zm2.27,2.57-.37.55-.26-.26h-.52v-.29h.29l.29-.28v.21Zm.51-5.21h-.51v-.22h.57Zm7.21-3.37V544h.29v.29l.3.28Zm3.72,3.69h-.28v-.54h.28Zm.29-3.69h-.29v-.29h.57Zm3.72,3.69h-.57V548h.57Zm.25-3.76h-.54v-.22h.29l.25-.28Zm.89,5.25v-.34l.28.07.34.21Zm2-1.49h-.54V548h.29l.25-.27Zm0-3.69V544l.58.57Zm36.64,3.43h.28v.86l-.28,0Zm-1.72,1.72.29.16V550h-.57l-.29-.28Zm-2.29-1.43.29-.29h.28v.29l-.57.52ZM2888,548l-.14.57-.14-.57Zm-3.72,0-.24.5,0-.5Zm-2.31,1.72.33.14-.3.14-.29-.14Zm-1.41-5.15.3-.29h.27v.29h-.27l-.3.57Zm-.28,3.43h.28l.29.24-.24.26-.33-.21Zm-3.44-3.43h.29v.28l-.29.06Zm-.28,3.43h.57v.29h-.57Zm-3.75,0,0-.28h.57v.57l-.29,0-.28.18-.23-.21Zm-7.41.06V548h.28v.32h-.28Zm-3.2,3.09H2862l-.59-.29-.27-.28h1.43Zm-.2-6.3h-.32v-.57h.86Zm2,6h-.29v-.28h.29Zm1.43,2.86h-.29l-.28.29h-.29l0-.27h-.27v-.6h.86l.29.29Zm.86-2.57-.43-.07-.15-.22h-.57v-.28h1.15Zm0-6.58H2866l-.1.28-.53.29v-.57l.62-.55.24,0Zm1.71,9.15v-.57h.58l.28.26.29.1.28.21Zm1.37-5.15h-.22V548h.57Zm.64-4h-.28l-.3.28h-.28v-.28l.6-.57h.26Zm2.81,9.36-1,.08-.06-.86a1.68,1.68,0,0,0,.45,0l.14.29h.56Zm2-1.36h-.55v-.28l.23-.26h.32Zm0-1.42h-1.72l-.22-.29h-.35v-.28h.86v.28h1.43Zm1.08,2.75-.2.11-.31-.36v-.21h1.15Zm1.49,1.49h-.28v-.24h.28Zm1.44-4.24h-2.29v-.29h2.29Zm1.43,2.57-.29.29-.29-.07-.57-.22v-.28h1.15Zm2.29-2.57H2880v-.57h.57l.28.22,1.73.06Zm.42,2.29h.4v.28h-.54Zm.72,6.24-.32-.11.32-.11.29.06Zm1.43-8.25v.6l-.32.49-.52.08,0,.27H2884l-.29-.29v-2.27l1.18-.84.27-.05,0,1.44h1.42l0,.31-1.16,0Zm2.23,2.32-.23.26h-.28l-.29-.29v-.28h.86Zm1.49,9.13H2888v-.29h.86Zm-.86-7.61.22-.12h.35v.24l-.28.05Zm.29-4.12-.12.26-.17-.26h-.86v-.29h2.29l0,.29Zm2.29,2.86H2890l-.23-.29.23-.28h.58l.28.33Zm1,8.87-.13-.14.12-.15.14.15Zm3-8.58H2894l-.57-.58v-.28h1.14Zm.9-3.15-.16.26-.31-.26-3.25,0-.18.28-.32-.26h-.68v-.29h.85l.17-.28.13.28h5.43l-.06.27Zm1.68,1.43.24,0,.05.49h-.21Zm1.14,1.72-.85-.64v-.22h.86Zm0-3.44H2898v-.28h.29Zm0-2.45.38-.41h.16a2.94,2.94,0,0,0,.05.59s-.59.27-.59.27Zm1.07,7.08-.53.24h-.25l0-.29.34-.29h.49Zm.09-4.06h-.3l-.27-.28-.3,0v-.27h3.72v.29h-2.58Zm1.68,2.29-.26-.28H2902l.57.63v.23l-1.43,0Zm2,2.29h-.27l-.29-.28,0-.3.3-.27.54.54Zm1.45-4.86h-.29l0,.28-.26,0-.31-.28-.5,0-.2.27h-.41v-.57h2Zm1.43,3.15h-.86v-.86h.57l.29.28Zm2.57-.86h.57l.58.26v.6l-1.15-.08Zm2,2.57h-.28l-.57-.28v-.29h.85Zm2.87-2-.37.29h-.78v-.86h1.15Zm.85,1.48h-.57v-.34h.57Zm3.72,8h-.57v-.57h.57Z" transform="translate(-2330.67 -231)" style="fill:#fff000"/><polygon id="R_bottom_2" points="495.26 353.63 495.83 353.63 495.83 353.94 495.54 354.21 494.97 354.21 495.26 353.63" style="fill:#fff000"/><path id="P_top" d="M3044.87,502.52s-.64,1.79-8.44,1.43L3023,505.09l-3,0-2.9-.54-2,0s-15.2,1.54-21.25,1.71L2956.39,508l-6.4,13.64-10.84,21.46,15.24-.27,5.11-6,2.76,0s3.9-8.1,4.75-9.64c0,0,2.1-4.12,2.27-4.76,0,0,.84-1.9,1.87-2.12l26.33-2.18,33.59-1.93v.25l-15.49,5.15-21.21,6.87-28.25,8.29H3009a64.15,64.15,0,0,1,6.43-2.25l5-1.54-.54-.71.76,0,.42.5,34.27-12.3,3.47-18.85ZM3005,531.13h-.5l-.21-.26-1.27,0-.31.29h-.33l-.24-.29h-8.3v-.28h10.42l.74.28Zm8.3.86h-.86v-.29h.86Zm2.86,0h-1.72v-.29h1.72Zm2.29,0H3018l-.19-.29h.65Z" transform="translate(-2330.67 -231)" style="fill:#fff000"/><path id="P_bottom" d="M2963.59,537.43l-1.48.57v-.57h-2l-5.17,6h-16l-15.56,5.65.11,1.22h-.22l-.46-.89-1.75.39,0,.5c.36.93,8.69,6.83,8.69,6.83l.43-.86,3.94.07-.79.79-1.79,0v.75l.48.5.06,1.86-1.11,0-.79,1.43c.29-.28,1.93-.21,1.93-.21v1.36l-.52,0-1.66-.61c-.75,1.14-3.67,8.18-7.45,16.38-.3.65-1.23,2.16-1.54,2.82-.21.45-.11,1.18-.33,1.62-3.6,7.14-6.59,13.27-6.59,13.27l-11.41,24.32-9.69,20.1a1.86,1.86,0,0,0,1.14-.47c1-1.68,3.75-2.75,3.75-2.75a4.38,4.38,0,0,0,2.15-2.47l5.9-12.59a13.51,13.51,0,0,1,2.79-4h.68a4.65,4.65,0,0,1,2.58-1.89l1-.18c1-1.47,5.19-4.54,5.19-4.54l8.62-5.62a3.81,3.81,0,0,0,.82-.93l6-12.37,13.44-27.15c1.58-3.29,5.26-10.05,5.26-10.05l20.2-6.58.43-.47.19.24,16.45-5.13a134.32,134.32,0,0,0,17.88-6.29Zm-37.5,53.5h-.31v-.29h.31Zm8-.29h-.31v-.28h.31Zm33.43-47.78H2967v-.29h.55Zm9.15,2.58.6-1.33V544h1.88l.45.77.81.66Z" transform="translate(-2330.67 -231)" style="fill:#fff000"/><polygon id="U_top" points="689.34 304.49 697.54 300.37 697.54 301.27 697.97 301.56 703.24 299.87 702.93 305.85 688.67 305.85 689.34 304.49" style="fill:#fff000"/><path id="U_bottom" d="M3083.71,505.74c0-1.75,2-3.33,2-3.33l-.93-2.07,1.79-5.26v-1.72l-.89.68-1.68.47h-.54l-2.72,4.5-12.87,20.46-11.52,18.31-1.75,1.61-6.12,3.69L3037,551l-11.12,7.33h-.58v-.82l1.41-1.2.13-.79-.41-.41,7.17-17.66h-14.59l-5.3,12.23,3.73.1-.68,1-1.25-.18-2.13-.2-6.1,15.69v.85l3.11,2.62A88.82,88.82,0,0,0,3018,575c1.5-.65,7.12-5.47,7.12-5.47.72-.43,6.94-4.26,6.94-4.26l11-7.8c2.4-1.86,3.11-1.68,3.11-1.68-.39,1.25-5.94,12.3-5.94,12.3.22.65,1.47.79,1.47.79,1.75.14,5.11,2.83,5.11,2.83,6.44,4.29,6.44,3.47,6.44,3.47l11.45-21.39-11.05-.07-.33-.54h5l.43.23h1.35l.33-.22h3.75l.18.23.54.09,2.32-4.57-11.12-.11.71-.47.58,0,.17.28h1.4l.39-.25.54-.07.32.36,4.22,0,.65-.35,2.57-.15,9.37-16.88a74.7,74.7,0,0,0,3.79-7.29,5.8,5.8,0,0,1,1.9-2.08c0-.64,4.43-8.37,4.43-8.37C3086.11,512.28,3083.71,505.74,3083.71,505.74Zm-56.65,36.55h.56v.28h.56l.3.29h-1.43Zm-6.58,0h1.15l.29.25-1.44.05Zm2.86,8h-2l-.32-.3h-1.67l0-.29-1.13,0,0-.28.26-.28,0-.87-.77-.06.23-.22h3.14v.29l-.26.57h1.12l.62.86h.81Zm.57,4.28h-.28v-.27h.28Zm-.57-12v-.28h2.84l-.29.3-.31,0,.05.29h-.29v-.29Zm11.73,12-.34.28h-.23v-.56h.57Zm3.44-.07-.23.07-.06-.28h.29Zm7.79.35-.07-.56h.29Zm2.79.87h.29v.5h-.29Zm0,2.28h.25l0,.29.21.52-.21.63h-.29Zm0,2.58h.57l-.28.29h-.29Zm3.72,2.86h-1.14l-.25.59.77.86.1.27h-1.2l-.28.28H3050l-.3.25-.84-.64v-1.32l.28,0,0-1.68.58.48,2.84.14.32.2Zm2.58,3.72h-.58v-.29h.58Zm-.58-6.29h-4.57l-.29-.29v-.29h6Zm-4-2.29h1.93l.12.53-.34.33h-1.1Zm9.64-.6-.47-.26h-.87l-.13.26-.17-.3-8.29.06v-.6l10.31.1Zm2.09-2.55-.56.79-4.31.1-.35-.32h-.5l-.27.29H3056l-.32-.29h-.25l-.15.32-2.72-.05-.23-.39.23-.45Z" transform="translate(-2330.67 -231)" style="fill:#fff000"/><path id="N_bottom_1" d="M3097.78,505.68s-5.78,10.07-7.85,14.65c0,0-5.06,9.87-6.63,11.94l-8.72,15.88,2-.23.28.38H3078V548l.32,0,.29.32h3.68l.29-.32,1.39.07.36.25h8l5.37-9.09,2.22,9.37h1l.43-.32,3.47.07.46.25h21.1l9.12-16.56-1.89,0-3.15.57-11.73,0L3112.07,544s-5.26-23.36-9-33.12l-4.76-.07a2.49,2.49,0,0,0-.89-2.29l0-.5,1.15-1.86.11-1Z" transform="translate(-2330.67 -231)" style="fill:#fff000"/><path id="N_top" d="M3142.33,509.39l-4.54.28H3132c-3.54,4.58-12.89,22.1-12.89,22.1l1.94-.14.4.36H3126l.28-.22.4.22h.86l4-.22,4.33-.42,12-22Zm-16.85,21.45h-3.14v-.28h3.14Z" transform="translate(-2330.67 -231)" style="fill:#fff000"/><path id="N_bottom_3" d="M3074.21,548.87s-6.5,12-8.62,16.88h.67l.33-.29h2.24a124.5,124.5,0,0,1,14.33-2l.55-.29,4.89-8.89-6.27-.29-.6-.5,7.49-.05,2.48-4.24-12.85-.11-.07-.2Z" transform="translate(-2330.67 -231)" style="fill:#fff000"/><path id="N_bottom_2" d="M3120.26,559.71s4.94-9.12,5.51-10.27h-14l-2.05,0-.43-.25H3108l0,.28h-.34v-.28h-.85l-.36.28-1.38,0-.27-.26h-1.43l-.21.26-.41-.26-2.82,0,4.27,16.83,12.59-.27,2.79-5.18-2.71-.05.16-.24A17.68,17.68,0,0,1,3120.26,559.71Zm-4.36.89-.14-.29h.28Z" transform="translate(-2330.67 -231)" style="fill:#fff000"/><path id="K_top" d="M3264.07,477.52,3245.54,487l-15.41,7.3-16.85,8.12L3167.14,525l-.41,0,12-22.46-16,.72-1.31-.25-1.08-1.73-.41-.17-10.67,19.77-5.45,10.5h1.61l.41.28,2.26,0,.31-.24h.91l.31.28,1.31,0,0-.24h.64l.22.25,7.36.06,2,1.43.1.55,1.28,0,1.29.83.91,0,2.12,1.45,1,1,1.12.09,2,1.12,0,.86h-.62l-.36-.27-6.13-3.38-.76-.14-.65-.45-.55-.07-.07-.22-.74-.05-.12-.21-.59-.6-.57-.07-.86-.83h-.55l-.36-.28h-1.64l-.31.27h-2.27l-.31-.29H3153l-.34.3-1.95-.06-.43-.24-7.32.05-7.46,14v.24l.86,1.76h12.13l.45-.28h.77l.38.28h4l2.63-4.86c1.12-1.88,2.74-4.29,2.74-4.29l8,4.29c4.31,2.31,8.87,5.17,8.87,5.17l.47-.33.74,0-.21-1.1,1.09,1.14h11l.26.29.77,0,.24-.21.38,0,.26.24,3.46.07.66.5.74-.52h1.41l.26-.29,1.17,0,.31.26h2.62l0-.25c-1.05,0,.71-1.44.71-1.44,1.45-.91,3-1.72,3-1.72l0-.26-4.79-3.15-7.39-4.34-4.53-2.79-4.74-2.65h-2l0-.57h.93l-.59-.89,22.65-11.89,18.28-9.53a9.08,9.08,0,0,0,1.29-1,16.38,16.38,0,0,1,3-2.5l4.22-2,17.21-8.53a8.21,8.21,0,0,0,3.11-2.63l3.47-5.4a12.9,12.9,0,0,1,5.89-5.22l3-4.19C3264.94,477,3264.07,477.52,3264.07,477.52ZM3167,530.84h-2.29v-.28h2.58Zm5.44,7.16v.28h-.29l0-.28h-.27v-.29h.86l.29.29Zm14.59-.29h.57V538H3187Zm0,1.15h.57v-.58h.29l.3.58h.55v.57h-2Zm-1.43-.86h.23v.28h-.23Z" transform="translate(-2330.67 -231)" style="fill:#fff000"/><path id="K_bottom_1" d="M3153.81,548.87h-3.61l-.4.29h-13.16c1.32,2.73,1.13,4,1.13,4l.45.29.41-.32v.62l-5.2,10.23-.52.63v.5l8.59,6.36h.26c.33-1.14,3.46-6.82,3.46-6.82l4.95-8.79-.66.45h-7.73l-.05-.23,7.49-.34h1.06l.94-1.72h-9.1l-.05-.57h9.4ZM3142.94,560l0-.29-1.19,0V560l-.53.08-.36.55h-3.69l.56-.54,0-1.12-.28-.2.81-.12.27.21.88.07.35-.3h1.09l.29.28h.57v.58h1.43v.28h.57l.29.29Zm-.58-2.58.29-.28h.57v.28l1.43,0,.34-.24h2.24v.57l-.32.27-8.19-.06,1.09-.5Z" transform="translate(-2330.67 -231)" style="fill:#fff000"/><path id="K_bottom_2" d="M3290.71,604.11l-3-1.79c-.93-.5-6.91-3.91-6.91-3.91l-.55,0-2.29.84h-1.43l-8.32-4.79-.36.16-1.33,0v.28h-.5l-.41-.21-1.05-.14.48-1.29.57-.22-17.79-9.8-.47.22V583l-19.91-10.85-3.88-2.16-11.68-6.53-.26-.65-1.47-7.4h-7.7v.26l-1.15,0-.31.27h-.58l-.35-.25-1.36-.08-.57-.53h2.32l0-.85h-11.15L3189,554h4.59l1.13-1.43h13.69l-4.25-2.58h-6.86v-.28h-10l-.06-.34-1.1.05v.29h-.2l-.06-.23h-8.27l4.13,2.23a5.48,5.48,0,0,0,2.4,2.58l72.19,38.6,1.62,0v.22l-.52.23,1.69,1,.22,0,0-1.12-.52-.07.24-.26,1.14,0,.31.24.79.07-.53.86,0,.48-.26,0v-.29h-.84l0,.26,21.46,11.47h.55l.31-.28h8.53l.31-.78Zm-29-12.4h-.47l-.1-.21h.57Zm.29,1.22h.57v.33l-.57-.16Zm1.14,1.43h-.38l-.19.29h-.29v-.29l.29-.29h.57Z" transform="translate(-2330.67 -231)" style="fill:#fff000"/><path d="M3282.56,606.38h8.58a8.94,8.94,0,0,0,1.72,1.43v.28l-.29.51,0,.9.26,1.1v.64l1.33,1.15h-.47l-11.16-5.82Z" transform="translate(-2330.67 -231)" style="fill:#fff000"/></g></g></svg>